<svg viewBox="0 0 468.293 468.293" xmlns="http://www.w3.org/2000/svg"><path d="M392.321 327.514v52.604c0 11.528-8.491 22.367-23.54 31.894-2.14 1.312-4.418 2.692-6.903 3.935 0 0-.069 0-.069.069-2.14 1.174-4.418 2.279-6.834 3.452-8.077 3.797-17.397 7.318-27.614 10.424-2.278.691-4.557 1.38-6.903 2.071h-.069a473.084 473.084 0 01-6.834 1.864 352.125 352.125 0 01-27.614 5.868c-2.278.414-4.556.828-6.903 1.174h-.069c-2.278.345-4.487.758-6.834 1.035-8.905 1.311-18.087 2.348-27.614 3.175-2.278.207-4.557.415-6.903.553h-.069c-2.278.207-4.487.346-6.834.484-8.974.551-18.225.897-27.614.966-2.278.069-4.556.069-6.903.069h-.069c-2.347 0-4.556 0-6.834-.069a512.93 512.93 0 01-27.614-.966c-2.347-.138-4.625-.276-6.903-.484h-.069c-2.347-.138-4.556-.346-6.834-.553-9.527-.828-18.708-1.864-27.614-3.175-2.347-.276-4.625-.69-6.903-1.035h-.069c-2.347-.346-4.556-.76-6.834-1.174a352.223 352.223 0 01-27.614-5.868c-2.347-.622-4.694-1.243-6.903-1.864h-.069c-2.347-.691-4.556-1.38-6.834-2.071-10.217-3.106-19.537-6.627-27.614-10.424a91.897 91.897 0 01-6.903-3.521s-.069 0-.069-.069a64.882 64.882 0 01-6.834-3.865C8.56 402.554 0 391.646 0 380.118v-52.604z" fill="#f6c358"/><path d="M392.321 327.514c0 11.529-8.491 22.367-23.54 31.756-2.209 1.449-4.487 2.83-6.973 4.074-2.14 1.242-4.418 2.346-6.834 3.52-8.077 3.797-17.397 7.249-27.614 10.424-2.278.69-4.557 1.381-6.903 2.07h-.069a437.282 437.282 0 01-6.834 1.864 351.206 351.206 0 01-27.614 5.869c-2.278.415-4.556.828-6.903 1.173h-.069c-2.278.346-4.487.76-6.834 1.036-8.905 1.312-18.087 2.347-27.614 3.176-2.278.207-4.557.414-6.903.552h-.069c-2.278.206-4.487.345-6.834.483-8.974.553-18.225.898-27.614.967-2.278.069-4.556.069-6.903.069h-.069c-2.347 0-4.556 0-6.834-.069a509.837 509.837 0 01-27.614-.967c-2.347-.138-4.625-.276-6.903-.483h-.069c-2.347-.138-4.556-.345-6.834-.552-9.527-.829-18.708-1.864-27.614-3.176-2.347-.276-4.625-.69-6.903-1.036h-.069c-2.347-.345-4.556-.758-6.834-1.173a351.303 351.303 0 01-27.614-5.869 449.503 449.503 0 01-6.903-1.864h-.069c-2.347-.689-4.556-1.38-6.834-2.07-10.217-3.107-19.537-6.627-27.614-10.424a92.65 92.65 0 01-6.903-3.52s-.069 0-.069-.069a65.425 65.425 0 01-6.834-3.866C8.56 349.95 0 339.043 0 327.514c0-37.002 87.88-67.033 196.195-67.033s196.126 30.031 196.126 67.033z" fill="#fcd462"/><path d="M195.592 375.815c-1.954 0-3.811-.003-5.726-.061a504.382 504.382 0 01-27.04-.939c-2.207-.131-4.293-.256-6.378-.442l-.835-.076h-.326c-1.848-.119-3.61-.284-5.415-.448-9.942-.866-18.613-1.863-26.887-3.079-1.905-.232-3.229-.451-4.543-.665l-3.723-.573c-1.387-.226-4.912-.872-4.912-.872a331.382 331.382 0 01-26.366-5.591c-2.064-.549-4.314-1.143-6.436-1.741l-6.552-1.97c-7.75-2.357-14.893-4.951-21.28-7.732v-.058l-10.393-5.067-3.36-1.89h-.137a56.559 56.559 0 01-1.518-.942c-11.146-7.009-15.034-13.064-15.034-16.155 0-17.027 67.375-48.299 177.463-48.299 110.043 0 177.393 31.271 177.393 48.299 0 3.082-3.857 9.085-14.723 15.863-2.29 1.497-3.902 2.445-5.442 3.216l-1.027.555c-1.704.991-3.527 1.857-5.445 2.79-6.835 3.213-15.317 6.405-25.152 9.463l-6.485 1.927a488.01 488.01 0 01-6.561 1.79 331.816 331.816 0 01-25.954 5.506c-1.848.335-3.555.646-5.268.921l-3.793.585c-1.244.204-2.485.415-3.78.567-8.835 1.29-17.506 2.287-27.064 3.119-1.979.18-3.899.354-5.86.482l-1.162.076c-2.082.186-4.107.311-6.253.436-9.113.561-18.061.875-26.655.936-2.338.067-4.299.07-6.28.07l-1.091-.001z" fill="#f6c358"/><path d="M37.416 366.863v52.604a91.897 91.897 0 01-6.903-3.521s-.069 0-.069-.069a64.882 64.882 0 01-6.834-3.865v-52.604a65.245 65.245 0 006.834 3.866c0 .069.069.069.069.069a91.892 91.892 0 006.903 3.52zm41.421 14.359v52.605c-2.347-.622-4.694-1.243-6.903-1.864h-.069c-2.347-.691-4.556-1.38-6.834-2.071v-52.604c2.278.69 4.487 1.381 6.834 2.07h.069c2.209.622 4.556 1.244 6.903 1.864zm41.42 8.078v52.604c-2.347-.276-4.625-.69-6.903-1.035h-.069c-2.347-.346-4.556-.76-6.834-1.174v-52.604c2.278.415 4.487.828 6.834 1.173h.069c2.278.345 4.556.76 6.903 1.036zm41.421 4.211v52.605c-2.347-.138-4.625-.276-6.903-.484h-.069c-2.347-.138-4.556-.346-6.834-.553v-52.603c2.278.207 4.487.414 6.834.552h.069c2.278.206 4.555.344 6.903.483zm41.42.966v52.604c-2.278.069-4.556.069-6.903.069h-.069c-2.347 0-4.556 0-6.834-.069v-52.604c2.278.069 4.487.069 6.834.069h.069c2.347 0 4.625 0 6.903-.069zm41.421-2.001v52.603c-2.278.207-4.557.415-6.903.553h-.069c-2.278.207-4.487.346-6.834.484v-52.605c2.347-.138 4.556-.276 6.834-.483h.069c2.346-.139 4.624-.345 6.903-.552zm41.42-5.385v52.604c-2.278.414-4.556.828-6.903 1.174h-.069c-2.278.345-4.487.758-6.834 1.035V389.3c2.347-.276 4.556-.69 6.834-1.036h.069c2.347-.345 4.625-.759 6.903-1.173zm41.421-9.803v52.604c-2.278.691-4.557 1.38-6.903 2.071h-.069a473.084 473.084 0 01-6.834 1.864v-52.605c2.347-.62 4.625-1.242 6.834-1.864h.069c2.346-.689 4.624-1.38 6.903-2.07zm41.42-18.018v52.742c-2.14 1.312-4.418 2.692-6.903 3.935 0 0-.069 0-.069.069-2.14 1.174-4.418 2.279-6.834 3.452v-52.604c2.416-1.174 4.694-2.278 6.834-3.52 2.485-1.244 4.763-2.625 6.972-4.074z" fill="#dc8744"/><path d="M468.293 247.735v52.604c0 11.528-8.491 22.367-23.54 31.894-2.14 1.312-4.418 2.692-6.903 3.935 0 0-.069 0-.069.069-2.14 1.174-4.418 2.279-6.834 3.452-8.077 3.797-17.397 7.318-27.614 10.424-2.278.691-4.556 1.38-6.903 2.071h-.069a473.084 473.084 0 01-6.834 1.864 352.125 352.125 0 01-27.614 5.868c-2.278.414-4.556.828-6.903 1.174h-.069c-2.278.345-4.487.758-6.834 1.035-8.905 1.311-18.087 2.348-27.614 3.175-2.278.207-4.556.415-6.903.553h-.069c-2.278.207-4.487.346-6.834.484-8.974.551-18.225.897-27.614.966-2.278.069-4.556.069-6.903.069h-.069c-2.347 0-4.556 0-6.834-.069a512.93 512.93 0 01-27.614-.966c-2.347-.138-4.625-.276-6.903-.484h-.069c-2.347-.138-4.556-.346-6.834-.553-9.527-.828-18.708-1.864-27.614-3.175-2.347-.276-4.625-.69-6.903-1.035h-.069c-2.347-.346-4.556-.76-6.834-1.174a352.223 352.223 0 01-27.614-5.868c-2.347-.622-4.694-1.243-6.903-1.864h-.069c-2.347-.691-4.556-1.38-6.834-2.071-10.217-3.106-19.537-6.627-27.614-10.424a91.897 91.897 0 01-6.903-3.521s-.069 0-.069-.069a64.882 64.882 0 01-6.834-3.865c-15.049-9.458-23.61-20.366-23.61-31.894v-52.604h392.316z" fill="#f6c358"/><path d="M468.293 247.735c0 11.529-8.491 22.367-23.54 31.756-2.209 1.449-4.487 2.83-6.973 4.074-2.14 1.242-4.418 2.346-6.834 3.52-8.077 3.797-17.397 7.249-27.614 10.424-2.278.69-4.556 1.381-6.903 2.071h-.069a437.282 437.282 0 01-6.834 1.864 351.206 351.206 0 01-27.614 5.869c-2.278.415-4.556.828-6.903 1.173h-.069c-2.278.346-4.487.76-6.834 1.036-8.905 1.312-18.087 2.347-27.614 3.176-2.278.207-4.556.414-6.903.552h-.069c-2.278.206-4.487.345-6.834.483-8.974.553-18.225.898-27.614.967-2.278.069-4.556.069-6.903.069h-.069c-2.347 0-4.556 0-6.834-.069a509.837 509.837 0 01-27.614-.967c-2.347-.138-4.625-.276-6.903-.483h-.069c-2.347-.138-4.556-.345-6.834-.552-9.527-.829-18.708-1.864-27.614-3.176-2.347-.276-4.625-.69-6.903-1.036h-.069c-2.347-.345-4.556-.758-6.834-1.173a351.303 351.303 0 01-27.614-5.869 449.503 449.503 0 01-6.903-1.864h-.069c-2.347-.689-4.556-1.38-6.834-2.071-10.217-3.107-19.537-6.627-27.614-10.424a92.65 92.65 0 01-6.903-3.52s-.069 0-.069-.069a65.425 65.425 0 01-6.834-3.866c-15.049-9.458-23.61-20.365-23.61-31.894 0-37.002 87.88-67.033 196.195-67.033s196.122 30.029 196.122 67.032z" fill="#fcd462"/><path d="M271.553 296.035c-1.948 0-3.805-.003-5.713-.061a499.927 499.927 0 01-27.034-.939c-2.204-.131-4.284-.253-6.36-.442l-.848-.076h-.348c-1.774-.113-3.47-.271-5.201-.427-10.192-.89-18.863-1.887-27.085-3.101-1.912-.232-3.235-.451-4.552-.665l-3.723-.573c-1.43-.232-4.918-.869-4.918-.869a331.84 331.84 0 01-26.351-5.595c-2.07-.549-4.32-1.143-6.436-1.741l-6.546-1.963c-7.78-2.366-14.924-4.963-21.293-7.738v-.073l-10.445-5.076-3.311-1.863h-.131a54.455 54.455 0 01-1.527-.948c-11.14-7-15.027-13.055-15.027-16.149 0-17.027 67.375-48.302 177.463-48.302 110.043 0 177.393 31.274 177.393 48.302 0 3.079-3.857 9.082-14.723 15.86-2.305 1.506-3.918 2.454-5.442 3.22l-1.012.546c-1.707.991-3.534 1.86-5.457 2.793-6.845 3.22-15.32 6.412-25.152 9.466-1.796.543-6.488 1.927-6.488 1.927a488.01 488.01 0 01-6.561 1.79 330.025 330.025 0 01-25.96 5.509c-1.838.335-3.54.643-5.25.915l-3.82.591c-1.238.204-2.476.412-3.765.564-8.79 1.287-17.457 2.284-27.064 3.119-1.991.183-3.899.357-5.851.482l-1.195.076c-2.076.189-4.091.311-6.229.436-9.058.561-18.003.875-26.655.936-2.338.067-4.299.07-6.28.07l-1.103-.001z" fill="#f6c358"/><path d="M113.388 287.084v52.604a91.897 91.897 0 01-6.903-3.521s-.069 0-.069-.069a64.882 64.882 0 01-6.834-3.865v-52.604a65.245 65.245 0 006.834 3.866c0 .069.069.069.069.069a92.65 92.65 0 006.903 3.52zm41.421 14.359v52.605c-2.347-.622-4.694-1.243-6.903-1.864h-.069c-2.347-.691-4.556-1.38-6.834-2.071v-52.604c2.278.69 4.487 1.381 6.834 2.071h.069c2.209.62 4.556 1.242 6.903 1.863zm41.42 8.077v52.604c-2.347-.276-4.625-.69-6.903-1.035h-.069c-2.347-.346-4.556-.76-6.834-1.174v-52.604c2.278.415 4.487.828 6.834 1.173h.069c2.278.346 4.556.76 6.903 1.036zm41.421 4.211v52.605c-2.347-.138-4.625-.276-6.903-.484h-.069c-2.347-.138-4.556-.346-6.834-.553v-52.603c2.278.207 4.487.414 6.834.552h.069c2.278.206 4.556.345 6.903.483zm41.42.966v52.604c-2.278.069-4.556.069-6.903.069h-.069c-2.347 0-4.556 0-6.834-.069v-52.604c2.278.069 4.487.069 6.834.069h.069c2.347 0 4.625 0 6.903-.069zm41.421-2.001v52.603c-2.278.207-4.556.415-6.903.553h-.069c-2.278.207-4.487.346-6.834.484v-52.605c2.347-.138 4.556-.276 6.834-.483h.069c2.346-.138 4.625-.345 6.903-.552zm41.42-5.385v52.604c-2.278.414-4.556.828-6.903 1.174h-.069c-2.278.345-4.487.758-6.834 1.035V309.52c2.347-.276 4.556-.69 6.834-1.036h.069c2.347-.345 4.625-.758 6.903-1.173zm41.421-9.803v52.604c-2.278.691-4.556 1.38-6.903 2.071h-.069a473.084 473.084 0 01-6.834 1.864v-52.605c2.347-.62 4.625-1.242 6.834-1.864h.069c2.346-.689 4.624-1.38 6.903-2.07zm41.42-18.018v52.742c-2.14 1.312-4.418 2.692-6.903 3.935 0 0-.069 0-.069.069-2.14 1.174-4.418 2.279-6.834 3.452v-52.604c2.416-1.174 4.694-2.278 6.834-3.52 2.485-1.244 4.763-2.624 6.972-4.074z" fill="#dc8744"/><path d="M392.321 167.955v52.604c0 11.528-8.491 22.367-23.54 31.894-2.14 1.312-4.418 2.692-6.903 3.935 0 0-.069 0-.069.069-2.14 1.174-4.418 2.279-6.834 3.452-8.077 3.797-17.397 7.318-27.614 10.424-2.278.691-4.557 1.38-6.903 2.071h-.069a473.084 473.084 0 01-6.834 1.864 352.125 352.125 0 01-27.614 5.868c-2.278.414-4.556.828-6.903 1.174h-.069c-2.278.345-4.487.758-6.834 1.035-8.905 1.311-18.087 2.348-27.614 3.175-2.278.207-4.557.415-6.903.553h-.069c-2.278.207-4.487.346-6.834.484-8.974.551-18.225.897-27.614.966-2.278.069-4.556.069-6.903.069h-.069c-2.347 0-4.556 0-6.834-.069a512.93 512.93 0 01-27.614-.966c-2.347-.138-4.625-.276-6.903-.484h-.069c-2.347-.138-4.556-.346-6.834-.553-9.527-.828-18.708-1.864-27.614-3.175-2.347-.276-4.625-.69-6.903-1.035h-.069c-2.347-.345-4.556-.76-6.834-1.174a352.223 352.223 0 01-27.614-5.868c-2.347-.622-4.694-1.243-6.903-1.864h-.069c-2.347-.691-4.556-1.38-6.834-2.071-10.217-3.106-19.537-6.627-27.614-10.424a91.897 91.897 0 01-6.903-3.521s-.069 0-.069-.069a64.882 64.882 0 01-6.834-3.865C8.56 242.995 0 232.087 0 220.559v-52.604z" fill="#f6c358"/><path d="M392.321 167.955c0 11.529-8.491 22.367-23.54 31.756-2.209 1.449-4.487 2.83-6.973 4.074-2.14 1.242-4.418 2.346-6.834 3.52-8.077 3.797-17.397 7.249-27.614 10.424-2.278.69-4.557 1.381-6.903 2.07h-.069a437.282 437.282 0 01-6.834 1.864 351.206 351.206 0 01-27.614 5.869c-2.278.415-4.556.828-6.903 1.173h-.069c-2.278.346-4.487.76-6.834 1.036-8.905 1.312-18.087 2.347-27.614 3.176-2.278.207-4.557.414-6.903.552h-.069c-2.278.206-4.487.345-6.834.483-8.974.553-18.225.898-27.614.967-2.278.069-4.556.069-6.903.069h-.069c-2.347 0-4.556 0-6.834-.069a509.837 509.837 0 01-27.614-.967c-2.347-.138-4.625-.276-6.903-.483h-.069c-2.347-.138-4.556-.345-6.834-.552-9.527-.829-18.708-1.864-27.614-3.176-2.347-.276-4.625-.69-6.903-1.036h-.069c-2.347-.345-4.556-.758-6.834-1.173a351.303 351.303 0 01-27.614-5.869 449.503 449.503 0 01-6.903-1.864h-.069c-2.347-.689-4.556-1.38-6.834-2.07-10.217-3.107-19.537-6.627-27.614-10.424a92.65 92.65 0 01-6.903-3.52s-.069 0-.069-.069a65.425 65.425 0 01-6.834-3.866C8.56 190.391 0 179.484 0 167.955c0-37.002 87.88-67.033 196.195-67.033s196.126 30.031 196.126 67.033z" fill="#fcd462"/><path d="M195.604 216.254c-1.966 0-3.835-.003-5.762-.058a506.858 506.858 0 01-27.015-.939c-2.183-.131-4.268-.253-6.354-.445l-.848-.076h-.348c-1.774-.113-3.47-.271-5.201-.427-10.192-.89-18.863-1.887-27.085-3.101-1.893-.232-3.198-.445-4.497-.655l-3.774-.579c-1.387-.226-4.912-.872-4.912-.872a329.538 329.538 0 01-26.36-5.595 417.368 417.368 0 01-6.442-1.738l-6.53-1.966c-7.78-2.366-14.927-4.96-21.302-7.738v-.073L38.72 186.91l-3.308-1.857h-.125a56.68 56.68 0 01-1.521-.942c-11.146-7.009-15.034-13.064-15.034-16.155 0-17.027 67.375-48.302 177.463-48.302 110.043 0 177.393 31.274 177.393 48.302 0 3.079-3.857 9.082-14.723 15.866-2.302 1.5-3.921 2.451-5.442 3.213l-1.012.546c-1.707.991-3.534 1.86-5.457 2.793-6.845 3.22-15.32 6.412-25.152 9.466l-6.488 1.93a408.06 408.06 0 01-6.537 1.78 327.509 327.509 0 01-25.979 5.515c-1.887.341-3.631.662-5.378.939l-3.729.573c-1.229.201-2.457.409-3.735.558-8.79 1.287-17.457 2.284-27.064 3.119-1.976.18-3.893.357-5.848.482l-1.198.076c-2.082.189-4.107.314-6.253.442-9.037.555-17.985.869-26.637.933-2.32.064-4.293.067-6.284.067h-1.068z" fill="#f6c358"/><path d="M37.416 207.304v52.604a91.897 91.897 0 01-6.903-3.521s-.069 0-.069-.069a64.882 64.882 0 01-6.834-3.865v-52.604a65.245 65.245 0 006.834 3.866c0 .069.069.069.069.069a92.65 92.65 0 006.903 3.52zm41.421 14.359v52.605c-2.347-.622-4.694-1.243-6.903-1.864h-.069c-2.347-.691-4.556-1.38-6.834-2.071v-52.604c2.278.69 4.487 1.381 6.834 2.07h.069c2.209.622 4.556 1.244 6.903 1.864zm41.42 8.077v52.604c-2.347-.276-4.625-.69-6.903-1.035h-.069c-2.347-.345-4.556-.76-6.834-1.174v-52.604c2.278.415 4.487.828 6.834 1.173h.069c2.278.346 4.556.761 6.903 1.036zm41.421 4.211v52.605c-2.347-.138-4.625-.276-6.903-.484h-.069c-2.347-.138-4.556-.346-6.834-.553v-52.603c2.278.207 4.487.414 6.834.552h.069c2.278.207 4.555.345 6.903.483zm41.42.967v52.604c-2.278.069-4.556.069-6.903.069h-.069c-2.347 0-4.556 0-6.834-.069v-52.604c2.278.069 4.487.069 6.834.069h.069c2.347 0 4.625 0 6.903-.069zm41.421-2.002v52.603c-2.278.207-4.557.415-6.903.553h-.069c-2.278.207-4.487.346-6.834.484v-52.605c2.347-.138 4.556-.276 6.834-.483h.069c2.346-.138 4.624-.344 6.903-.552zm41.42-5.385v52.604c-2.278.414-4.556.828-6.903 1.174h-.069c-2.278.345-4.487.758-6.834 1.035V229.74c2.347-.276 4.556-.69 6.834-1.036h.069c2.347-.344 4.625-.758 6.903-1.173zm41.421-9.803v52.604c-2.278.691-4.557 1.38-6.903 2.071h-.069a473.084 473.084 0 01-6.834 1.864v-52.605c2.347-.62 4.625-1.242 6.834-1.864h.069c2.346-.689 4.624-1.38 6.903-2.07zm41.42-18.018v52.742c-2.14 1.312-4.418 2.692-6.903 3.935 0 0-.069 0-.069.069-2.14 1.174-4.418 2.279-6.834 3.452v-52.604c2.416-1.174 4.694-2.278 6.834-3.52 2.485-1.244 4.763-2.624 6.972-4.074z" fill="#dc8744"/><path d="M468.293 88.175v52.604c0 11.528-8.491 22.367-23.54 31.894-2.14 1.312-4.418 2.692-6.903 3.935 0 0-.069 0-.069.069-2.14 1.174-4.418 2.279-6.834 3.452-8.077 3.797-17.397 7.318-27.614 10.424-2.278.691-4.556 1.38-6.903 2.071h-.069a473.084 473.084 0 01-6.834 1.864 352.125 352.125 0 01-27.614 5.868c-2.278.414-4.556.828-6.903 1.174h-.069c-2.278.345-4.487.758-6.834 1.035-8.905 1.311-18.087 2.348-27.614 3.175-2.278.207-4.556.415-6.903.553h-.069c-2.278.207-4.487.346-6.834.484-8.974.551-18.225.897-27.614.966-2.278.069-4.556.069-6.903.069h-.069c-2.347 0-4.556 0-6.834-.069a512.93 512.93 0 01-27.614-.966c-2.347-.138-4.625-.276-6.903-.484h-.069c-2.347-.138-4.556-.346-6.834-.553-9.527-.828-18.708-1.864-27.614-3.175-2.347-.276-4.625-.69-6.903-1.035h-.069c-2.347-.345-4.556-.76-6.834-1.174a352.223 352.223 0 01-27.614-5.868c-2.347-.622-4.694-1.243-6.903-1.864h-.069c-2.347-.691-4.556-1.38-6.834-2.071-10.217-3.106-19.537-6.627-27.614-10.424a91.897 91.897 0 01-6.903-3.521s-.069 0-.069-.069a64.882 64.882 0 01-6.834-3.865c-15.049-9.458-23.61-20.366-23.61-31.894V88.175z" fill="#f6c358"/><path d="M468.293 88.175c0 11.529-8.491 22.367-23.54 31.756-2.209 1.449-4.487 2.83-6.973 4.074-2.14 1.242-4.418 2.346-6.834 3.52-8.077 3.797-17.397 7.249-27.614 10.424-2.278.69-4.556 1.381-6.903 2.071h-.069a437.282 437.282 0 01-6.834 1.864 351.206 351.206 0 01-27.614 5.869c-2.278.415-4.556.828-6.903 1.173h-.069c-2.278.346-4.487.76-6.834 1.036-8.905 1.312-18.087 2.347-27.614 3.176-2.278.207-4.556.414-6.903.552h-.069c-2.278.206-4.487.345-6.834.483-8.974.553-18.225.898-27.614.967-2.278.069-4.556.069-6.903.069h-.069c-2.347 0-4.556 0-6.834-.069a509.837 509.837 0 01-27.614-.967c-2.347-.138-4.625-.276-6.903-.483h-.069c-2.347-.138-4.556-.345-6.834-.552-9.527-.829-18.708-1.864-27.614-3.176-2.347-.276-4.625-.69-6.903-1.036h-.069c-2.347-.345-4.556-.758-6.834-1.173a351.303 351.303 0 01-27.614-5.869 449.503 449.503 0 01-6.903-1.864h-.069c-2.347-.689-4.556-1.38-6.834-2.071-10.217-3.107-19.537-6.627-27.614-10.424a92.65 92.65 0 01-6.903-3.52s-.069 0-.069-.069a65.425 65.425 0 01-6.834-3.866c-15.049-9.458-23.61-20.365-23.61-31.894 0-37.002 87.88-67.033 196.195-67.033s196.122 30.03 196.122 67.032z" fill="#fcd462"/><path d="M271.553 136.477c-1.948 0-3.805-.003-5.713-.061a506.918 506.918 0 01-27.04-.939c-2.198-.131-4.277-.256-6.354-.445l-.848-.076h-.348c-1.774-.113-3.47-.271-5.201-.427-10.18-.89-18.851-1.887-27.091-3.098-1.86-.229-3.162-.445-4.457-.652l-3.808-.585a381.675 381.675 0 01-4.921-.872 329.699 329.699 0 01-26.351-5.595 399.203 399.203 0 01-6.436-1.738l-6.567-1.97c-7.75-2.357-14.89-4.954-21.271-7.732v-.076l-10.445-5.076-3.311-1.863h-.134a47.712 47.712 0 01-1.506-.936c-11.159-7.012-15.046-13.067-15.046-16.162 0-17.027 67.375-48.302 177.463-48.302 110.043 0 177.393 31.274 177.393 48.302 0 3.079-3.857 9.082-14.723 15.866-2.302 1.5-3.921 2.451-5.442 3.213l-1.012.546c-1.738 1.009-3.601 1.893-5.561 2.848-6.735 3.165-15.216 6.357-25.052 9.415l-6.485 1.927a408.06 408.06 0 01-6.537 1.78 327.509 327.509 0 01-25.979 5.515c-1.912.348-3.649.665-5.39.939l-3.762.579c-1.223.201-2.442.405-3.713.555-8.774 1.287-17.448 2.28-27.04 3.116-1.991.183-3.899.357-5.851.482l-1.195.076c-2.076.189-4.091.314-6.229.439a494.92 494.92 0 01-26.662.936c-2.332.067-4.293.07-6.274.07l-1.101.001z" fill="#f6c358"/><path d="M113.388 127.524v52.604a91.897 91.897 0 01-6.903-3.521s-.069 0-.069-.069a64.882 64.882 0 01-6.834-3.865v-52.604a65.245 65.245 0 006.834 3.866c0 .069.069.069.069.069a92.27 92.27 0 006.903 3.52zm41.421 14.359v52.605c-2.347-.622-4.694-1.243-6.903-1.864h-.069c-2.347-.691-4.556-1.38-6.834-2.071v-52.604c2.278.69 4.487 1.381 6.834 2.071h.069a461.44 461.44 0 006.903 1.863zm41.42 8.077v52.604c-2.347-.276-4.625-.69-6.903-1.035h-.069c-2.347-.345-4.556-.76-6.834-1.174v-52.604c2.278.415 4.487.828 6.834 1.173h.069c2.278.346 4.556.761 6.903 1.036zm41.421 4.211v52.605c-2.347-.138-4.625-.276-6.903-.484h-.069c-2.347-.138-4.556-.346-6.834-.553v-52.603c2.278.207 4.487.414 6.834.552h.069c2.278.207 4.556.345 6.903.483zm41.42.967v52.604c-2.278.069-4.556.069-6.903.069h-.069c-2.347 0-4.556 0-6.834-.069v-52.604c2.278.069 4.487.069 6.834.069h.069c2.347 0 4.625 0 6.903-.069zm41.421-2.001v52.603c-2.278.207-4.556.415-6.903.553h-.069c-2.278.207-4.487.346-6.834.484v-52.605c2.347-.138 4.556-.276 6.834-.483h.069c2.346-.139 4.625-.345 6.903-.552zm41.42-5.385v52.604c-2.278.414-4.556.828-6.903 1.174h-.069c-2.278.345-4.487.758-6.834 1.035V149.96c2.347-.276 4.556-.69 6.834-1.036h.069c2.347-.344 4.625-.758 6.903-1.172zm41.421-9.803v52.604c-2.278.691-4.556 1.38-6.903 2.071h-.069a473.084 473.084 0 01-6.834 1.864v-52.605c2.347-.62 4.625-1.242 6.834-1.864h.069c2.346-.689 4.624-1.38 6.903-2.07zm41.42-18.018v52.742c-2.14 1.312-4.418 2.692-6.903 3.935 0 0-.069 0-.069.069-2.14 1.174-4.418 2.279-6.834 3.452v-52.604c2.416-1.174 4.694-2.278 6.834-3.52 2.485-1.245 4.763-2.625 6.972-4.074z" fill="#dc8744"/></svg>