<svg height="640" width="640" xmlns="http://www.w3.org/2000/svg" xmlns:xlink="http://www.w3.org/1999/xlink"><defs><path id="b" d="M9.32 329.32C9.32 158.45 149.13 18.64 320 18.64s310.68 139.81 310.68 310.68S490.87 640 320 640 9.32 500.19 9.32 329.32z"/><path id="c" d="M320 19.68c-160.72 0-291 130.28-291 291s130.28 291 291 291 291-130.28 291-291-130.28-291-291-291z"/><path id="d" d="M354.17 54.89c71.46 0 136.7 25.89 187.45 68.35C488.8 60.06 409.06 19.68 320 19.68c-160.52 0-291 130.48-291 291 0 89.06 40.39 168.8 103.56 222.65-43.5-50.74-69.39-115.98-69.39-187.44 0-160.52 130.49-291 291-291z"/><path id="e" d="M526.08 105.63C640 219.55 640 403.88 526.08 517.8c-113.91 113.92-298.25 113.92-412.16 0"/><path id="f" d="M345.38 1.03l12.5 1.28 12.34 1.78 12.19 2.25 12.02 2.73 11.84 3.19 11.66 3.65 11.45 4.08 11.25 4.52 11.03 4.95 10.8 5.35 10.56 5.76 10.32 6.15 10.05 6.53 9.79 6.9 9.5 7.26 9.22 7.61 8.91 7.96 8.61 8.28 8.28 8.61 7.96 8.91 7.61 9.22 7.26 9.5 6.9 9.79 6.53 10.05 6.15 10.32 5.76 10.56 5.35 10.8 4.95 11.03 4.52 11.25 4.08 11.45 3.65 11.66 3.19 11.84 2.73 12.02 2.25 12.19 1.78 12.34 1.27 12.5.78 12.62.26 12.76-.26 12.76-.78 12.62-1.27 12.5-1.78 12.34-2.25 12.19-2.73 12.02-3.19 11.84-3.65 11.66-4.08 11.45-4.52 11.25-4.95 11.03-5.35 10.8-5.76 10.56-6.15 10.32-6.53 10.05-6.9 9.79-7.26 9.5-7.61 9.22-7.96 8.91-8.28 8.61-8.61 8.28-8.91 7.96-9.22 7.61-9.5 7.26-9.79 6.9-10.05 6.53-10.32 6.15-10.56 5.76-10.8 5.35-11.03 4.94-11.25 4.52-11.45 4.09-11.66 3.65-11.84 3.19-12.02 2.73-12.19 2.25-12.34 1.78-12.5 1.27-12.62.78-12.76.26-12.76-.26-12.62-.78-12.5-1.27-12.34-1.78-12.19-2.25-12.02-2.73-11.84-3.19-11.66-3.65-11.45-4.09-11.25-4.52-11.03-4.94-10.8-5.35-10.56-5.76-10.32-6.15-10.05-6.53-9.79-6.9-9.5-7.26-9.22-7.61-8.91-7.96-8.61-8.28-8.28-8.61-7.96-8.91-7.61-9.22-7.26-9.5-6.9-9.79-6.53-10.05-6.15-10.32-5.76-10.56-5.35-10.8-4.95-11.03-4.52-11.25-4.08-11.45-3.65-11.66-3.19-11.84-2.73-12.02-2.25-12.19-1.78-12.34-1.27-12.5-.78-12.62-.26-12.76.26-12.76.78-12.62 1.27-12.5 1.78-12.34 2.25-12.19 2.73-12.02 3.19-11.84 3.65-11.66 4.08-11.45 4.52-11.25 4.95-11.03 5.35-10.8 5.76-10.56 6.15-10.32 6.53-10.05 6.9-9.79 7.26-9.5 7.61-9.22 7.96-8.91 8.28-8.61 8.61-8.28 8.91-7.96 9.22-7.61 9.5-7.26 9.79-6.9 10.05-6.53 10.32-6.15 10.56-5.76 10.8-5.35 11.03-4.95 11.25-4.52 11.45-4.08 11.66-3.65 11.84-3.19 12.02-2.73 12.19-2.25 12.34-1.78 12.5-1.28 12.62-.77L320 0l12.76.26zM297.7 40.26l-10.96 1.11-10.83 1.55-10.68 1.97-10.53 2.39-10.38 2.79-10.2 3.18-10.03 3.58-9.83 3.95-9.65 4.32-9.44 4.67-9.23 5.03-9 5.38-8.78 5.7-8.54 6.03-8.29 6.35-8.03 6.65-7.78 6.95-7.49 7.23-7.22 7.52-6.93 7.79-6.63 8.05-6.32 8.3-6 8.55-5.68 8.78-5.35 9-5 9.23-4.65 9.43-4.3 9.63-3.92 9.82-3.55 10.01-3.17 10.17-2.77 10.34-2.37 10.5-1.95 10.63-1.54 10.78-1.11 10.9-.67 11.03-.23 11.13.23 11.21.68 11.08 1.12 10.97 1.54 10.83 1.98 10.68 2.38 10.53 2.79 10.38 3.19 10.2 3.57 10.03 3.95 9.83 4.32 9.65 4.67 9.44 5.03 9.23 5.38 9 5.7 8.78 6.03 8.54 6.35 8.29 6.65 8.03 6.95 7.78 7.23 7.49 7.52 7.22 7.79 6.93 8.05 6.63 8.3 6.32 8.55 6 8.78 5.68 9 5.35 9.23 5 9.43 4.65 9.63 4.3 9.82 3.92 10.01 3.55 10.17 3.17 10.34 2.77 10.5 2.37 10.64 1.95 10.77 1.54 10.9 1.11 11.03.67 11.13.23 11.13-.23 11.03-.68 10.9-1.12 10.77-1.54 10.64-1.98 10.5-2.38 10.34-2.79 10.17-3.19 10.01-3.57 9.82-3.95 9.63-4.32 9.43-4.68 9.23-5.03 9-5.37 8.78-5.7 8.55-6.03 8.3-6.35 8.05-6.65 7.79-6.95 7.52-7.23 7.23-7.52 6.95-7.79 6.65-8.05 6.35-8.3 6.03-8.55 5.7-8.78 5.38-9 5.03-9.23 4.67-9.43 4.32-9.63 3.95-9.82 3.57-10.01 3.19-10.17 2.79-10.34 2.38-10.5 1.98-10.64 1.54-10.77 1.12-10.91.68-11.02.23-11.13-.23-11.13-.67-11.03-1.11-10.9-1.54-10.78-1.95-10.63-2.37-10.5-2.77-10.34-3.17-10.17-3.55-10.01-3.92-9.82-4.3-9.63-4.65-9.43-5-9.23-5.35-9-5.68-8.78-6-8.55-6.32-8.3-6.63-8.05-6.93-7.79-7.22-7.52-7.49-7.23-7.78-6.95-8.03-6.65-8.29-6.35-8.54-6.03-8.78-5.7-9-5.38-9.23-5.03-9.44-4.67-9.65-4.32-9.83-3.95-10.03-3.58-10.2-3.18-10.38-2.79-10.53-2.39-10.68-1.97-10.83-1.55-10.96-1.11-11.09-.68-11.21-.23-11.21.23z"/><path id="g" d="M554.05 106.67C499.16 59.03 427.7 30.03 349 30.03c-52.82 0-101.49 13.47-144.99 36.25C239.22 48.67 278.58 39.35 320 39.35c81.81 0 156.38 37.28 206.08 95.28 58 49.71 94.24 123.23 94.24 206.08 0 41.43-9.32 80.78-25.89 115.99 22.79-43.5 36.25-93.2 36.25-146.02 0-78.71-29-150.16-76.63-204.01z"/><path id="h" d="M114.95 544.72c54.89 47.64 126.34 76.64 204.01 76.64 52.82 0 101.49-13.46 144.99-36.25C428.74 601.68 389.39 611 347.96 611c-81.81 0-156.37-37.28-206.08-95.27-58-49.71-95.28-123.24-95.28-206.09 0-41.42 9.32-80.77 25.89-115.98-20.71 44.53-34.17 94.24-34.17 147.05 0 78.71 28.99 150.16 76.63 204.01z"/><path id="i" d="M472.07 357.99c0 7.55-6 13.64-13.55 13.64h-54.56l-81.84-109.32-66.74-89.22c-16.37-32.74-25.46-50.93-27.28-54.57-4.55-9.01 2-19.74 12.18-19.74h81.84c82.75 0 149.95 67.3 149.95 150.07z"/><path id="j" d="M472.07 357.99c0 7.55-6 13.64-13.55 13.64h-54.56l-81.84-109.32V98.78c82.75 0 149.95 67.3 149.95 150.07z"/><path id="k" d="M267.56 153.35c-4.27 0-8.36 2-10.91 5.46-8.18 10.91-73.65 98.23-81.84 109.14a13.598 13.598 0 001.27 17.83c2.73 2.72 24.56 24.55 27.28 27.28 3.64 3.64 9.1 4.91 13.92 3.27 4.26-1.41 25.57-8.51 63.92-21.28v24.38c0 3.54-1.45 7.09-4 9.64-3.05 3.05-27.5 27.5-30.55 30.56-12.91 12.91-20.01 30.01-20.01 48.29v41.02c0 7.55 6.1 13.64 13.64 13.64h163.68c7.55 0 13.55-6.09 13.55-13.64V248.85c0-52.66-42.74-95.5-95.39-95.5h-54.56z"/><path id="l" d="M417.51 448.94c0 7.55-6 13.64-13.55 13.64h-81.84V153.35c52.65 0 95.39 42.84 95.39 95.5z"/><path id="m" d="M294.85 207.92c-7.54 0-13.64 6.11-13.64 13.64 0 7.54 6.1 13.65 13.64 13.65 7.53 0 13.64-6.11 13.64-13.65 0-7.53-6.11-13.64-13.64-13.64z"/><path id="n" d="M240.28 435.3c-22.55 0-40.92 18.37-40.92 40.92v27.29c0 7.55 6.1 13.64 13.64 13.64h218.24c7.55 0 13.55-6.09 13.55-13.64v-27.29c0-22.55-18.28-40.92-40.83-40.92H240.28z"/><path id="o" d="M444.79 503.51c0 7.55-6 13.64-13.55 13.64H322.12V435.3h81.84c22.55 0 40.83 18.37 40.83 40.92z"/><filter id="p" color-interpolation-filters="sRGB" height="1" width="1" x="0" y="0"><feColorMatrix result="color1" type="hueRotate" values="59"/><feColorMatrix result="color2" type="saturate" values=".865"/></filter><filter id="a" color-interpolation-filters="sRGB" height="1" width="1" x="0" y="0"><feColorMatrix result="color1" type="hueRotate" values="59"/><feColorMatrix result="color2" type="saturate" values=".865"/></filter></defs><g filter="url(#a)"><use fill="#d89e77" xlink:href="#b"/><use fill="none" xlink:href="#b"/><use fill="#d88b56" xlink:href="#c"/><use fill="none" xlink:href="#c"/><use fill="#cc7e48" xlink:href="#d"/><use fill="none" xlink:href="#d"/><use fill="#cc7e48" xlink:href="#e"/><use fill="none" xlink:href="#e"/><use fill="#f7c6a4" xlink:href="#f"/><use fill="none" xlink:href="#f"/><use fill="#e8b18b" xlink:href="#g"/><use fill="none" xlink:href="#g"/><use fill="#e8b18b" xlink:href="#h"/><g fill="none"><use xlink:href="#h"/><use xlink:href="#i"/><use xlink:href="#j"/><use xlink:href="#k"/><use xlink:href="#l"/><use xlink:href="#m"/><use xlink:href="#n"/><use xlink:href="#o"/></g></g><g filter="url(#p)" transform="translate(69.52 12.926) scale(.79703)"><use fill="#e8b18b" height="100%" width="100%" xlink:href="#i"/><use fill="#e8b18b" height="100%" width="100%" xlink:href="#j"/><use fill="#ffdcc5" height="100%" width="100%" xlink:href="#k"/><use fill="#f7c6a4" height="100%" width="100%" xlink:href="#l"/><use fill="#e8b18b" height="100%" width="100%" xlink:href="#m"/><use fill="#f7c6a4" height="100%" width="100%" xlink:href="#n"/><use fill="#e8b18b" height="100%" width="100%" xlink:href="#o"/></g><text fill="#ffe0a1" font-family="'URW Palladio L'" font-size="130.225" stroke-width=".476" x="280.935" y="552.751"><tspan x="280.935" y="552.751">X</tspan></text></svg>