<svg height="512" viewBox="0 0 60 59" width="512" xmlns="http://www.w3.org/2000/svg"><g fill="none"><circle cx="11" cy="38" fill="#3d324c" r="8"/><circle cx="9" cy="18" fill="#285680" r="8"/><circle cx="49" cy="38" fill="#e57e25" r="8"/><circle cx="51" cy="18" fill="#802d40" r="8"/><circle cx="30" cy="9" fill="#4c8056" r="8"/><path d="M16.81 43.5a6.018 6.018 0 00-3.9-4.19H9.09a6.018 6.018 0 00-3.9 4.19L11 46.583z" fill="#c03a2b"/><circle cx="11" cy="37" fill="#fdd7ad" r="3"/><path d="M14.81 23.5a6.018 6.018 0 00-3.9-4.19H7.09a6.018 6.018 0 00-3.9 4.19L9 26.667z" fill="#c03a2b"/><circle cx="9" cy="17" fill="#fdd7ad" r="3"/><path d="M43.19 43.5a6.018 6.018 0 013.9-4.19h3.82a6.018 6.018 0 013.9 4.19L49 46.708z" fill="#c03a2b"/><circle cx="49" cy="37" fill="#fdd7ad" r="3"/><path d="M45.19 23.5a6.018 6.018 0 013.9-4.19h3.82a6.018 6.018 0 013.9 4.19L51 26.458z" fill="#c03a2b"/><circle cx="51" cy="17" fill="#fdd7ad" r="3"/><path d="M35.81 14.5a6.018 6.018 0 00-3.9-4.19h-3.82a6.018 6.018 0 00-3.9 4.19l5.643 2.958z" fill="#c03a2b"/><circle cx="30" cy="8" fill="#fdd7ad" r="3"/><path d="M41 39l1-5c-.48.205-.992.406-1.515.6a18.43 18.43 0 01-5.915 1.05c-.02 0-.05-.01-.07-.01a2.632 2.632 0 01-1.87-1.14 2.438 2.438 0 01.19-2.86c.43-.504.94-.933 1.51-1.27 3.41-2.19 7.3-4.09 11.49-6.28l-2.53-3.96-.294.213C40.696 21.933 35.96 25 34 25a1.17 1.17 0 01-.72-.23c-1.63-1.18-.69-6.7-.37-8.32h-5.82C27.45 18.27 28.59 25 26 25a4.34 4.34 0 01-1.28-.23c-2.61-.8-6.44-3.49-8.01-4.64l-.63.98-1.9 2.98c4.19 2.19 8.08 4.09 11.49 6.28.57.337 1.08.766 1.51 1.27.676.812.753 1.966.19 2.86a2.648 2.648 0 01-1.94 1.15 7.795 7.795 0 01-1.93-.01c-1.9-.29-3.75-.843-5.5-1.64l.17.84L19 39c8 0 8 4 8 4v8s0 4-4 4a5.18 5.18 0 00-4.87 3.61c-.09.24-.13.39-.13.39a43.846 43.846 0 016.5-.87 13.49 13.49 0 014.5.41c.354.105.69.26 1 .46a7.181 7.181 0 013.5-.87c2.134-.051 4.268.11 6.37.48 1.27.2 2.13.39 2.13.39s-1-4-5-4-4-4-4-4v-8s0-4 8-4z" fill="#cb8252"/><path d="M11 47a9 9 0 119-9 9.01 9.01 0 01-9 9zm0-16a7 7 0 107 7 7.008 7.008 0 00-7-7z" fill="#7d6599"/><path d="M9 27a9 9 0 119-9 9.01 9.01 0 01-9 9zm0-16a7 7 0 107 7 7.008 7.008 0 00-7-7z" fill="#4482c3"/><path d="M49 47a9 9 0 119-9 9.01 9.01 0 01-9 9zm0-16a7 7 0 107 7 7.008 7.008 0 00-7-7z" fill="#f0c419"/><path d="M51 27a9 9 0 119-9 9.01 9.01 0 01-9 9zm0-16a7 7 0 107 7 7.008 7.008 0 00-7-7z" fill="#d75e72"/><path d="M30 18a9 9 0 119-9 9.01 9.01 0 01-9 9zm0-16a7 7 0 107 7 7.008 7.008 0 00-7-7z" fill="#71c285"/></g></svg>