<svg viewBox="0 0 512 512" xmlns="http://www.w3.org/2000/svg"><path d="M304.899 202.464c1.666-6.315 25.285-80.511-74.758-110.947S105.453 0 105.453 0s-93.445 220.822 98.643 253.099c91.324 15.346 100.803-50.635 100.803-50.635z" fill="#b2cad8"/><path d="M454.374 128.041c-7.779-19.843-31.927-34.034-60.261-33.512-46.393.855-71.933 34.656-89.049 61.15-17.684-21.41-49.141-39.876-105.165-40.943C69.031 112.244 18.497 47.104 18.497 47.104S3.022 261.622 155.15 302.708c0 0-23.445 11.267-45.76 32.247-48.305 45.417-81.906 93.293-100.719 123.63-3.326 5.363-4.667 11.752-3.585 17.969.451 2.592 1.281 4.961 6.68 8.706 4.292 2.978 12.779.85 19.475 3.982 5.094 2.383 8.677 10.469 15.337 12.601 5.511 1.764 13.167-2.589 19.843-1.181 5.752 1.213 10.929 8.366 17.605 9.199 5.895.736 12.712-4.864 19.367-4.502 5.976.325 12.113 6.673 18.731 6.64 1.138-.006 2.278-.238 3.425-.613 6.318-2.069 10.558-8.039 10.825-14.683 1.477-36.743 8.175-93.762 34.938-108.467 36.771 32.737 118.098 35.95 166.514-1.738 69.566-54.151 62.109-112.152 72.878-152.309 19.343-72.132 96.577-66.484 96.577-66.484-37.43-17.411-44.215-25.431-52.907-39.664z" fill="#e1effb"/><path d="M81.863 496.704a16.445 16.445 0 01-4.348 10.502c2.048 1.304 4.188 2.366 6.512 2.656 5.895.736 12.712-4.864 19.367-4.502 5.976.325 12.113 6.673 18.731 6.64 1.138-.006 2.278-.238 3.425-.613 6.318-2.069 10.558-8.039 10.825-14.683 1.477-36.743 8.175-93.762 34.938-108.467-55.297 22.492-87.973 71.724-89.45 108.467zm289.854-301.5c-10.769 40.157-3.312 98.158-72.878 152.309-39.165 30.487-89.965 51.306-127.413 40.822 36.824 32.643 118.032 35.813 166.399-1.837 69.566-54.151 62.109-112.152 72.878-152.309 19.343-72.132 96.577-66.484 96.577-66.484a529.333 529.333 0 01-4.646-2.192c-36.515-10.216-116.109-25.526-130.917 29.691zm-171.818-80.468C69.031 112.244 18.497 47.104 18.497 47.104S46.957 232.232 204.096 253.1s100.969-97.42 100.969-97.42c-17.685-21.411-49.142-39.877-105.166-40.944z" fill="#ccdfed"/><path d="M418.234 148.231a4.663 4.663 0 01-4.658-4.658c0-7.039-5.727-12.766-12.766-12.766s-12.765 5.727-12.765 12.766a4.663 4.663 0 01-4.658 4.658 4.663 4.663 0 01-4.658-4.658c0-12.176 9.905-22.081 22.08-22.081 12.176 0 22.081 9.905 22.081 22.081a4.66 4.66 0 01-4.656 4.658z" fill="#4d4a5b"/></svg>