<svg height="640" width="640" xmlns:xlink="http://www.w3.org/1999/xlink" xmlns="http://www.w3.org/2000/svg"><defs><path id="a" d="M4.79 329.32c0-170.87 139.81-310.68 310.68-310.68 170.88 0 310.68 139.81 310.68 310.68S486.35 640 315.47 640C144.6 640 4.79 500.19 4.79 329.32z"/><path id="b" d="M315.47 19.68c-160.71 0-291 130.28-291 291s130.29 291 291 291c160.72 0 291.01-130.28 291.01-291s-130.29-291-291.01-291z"/><path id="c" d="M349.65 54.89c71.46 0 136.7 25.89 187.44 68.35C484.28 60.06 404.54 19.68 315.47 19.68c-160.51 0-291 130.48-291 291 0 89.06 40.39 168.8 103.56 222.65-43.49-50.74-69.38-115.98-69.38-187.44 0-160.52 130.48-291 291-291z"/><path id="d" d="M521.56 105.63c113.91 113.92 113.91 298.25 0 412.17-113.92 113.92-298.25 113.92-412.17 0"/><path id="e" d="M340.86 1.03l12.49 1.28 12.35 1.78 12.18 2.25 12.02 2.73 11.85 3.19 11.65 3.65 11.46 4.08 11.25 4.52 11.03 4.95 10.8 5.35 10.56 5.76 10.31 6.15 10.06 6.53 9.78 6.9 9.51 7.26 9.21 7.61 8.92 7.96 8.6 8.28 8.29 8.61 7.95 8.91 7.61 9.22 7.27 9.5 6.9 9.79 6.53 10.05 6.15 10.32 5.75 10.56 5.36 10.8 4.94 11.03 4.52 11.25 4.09 11.45 3.64 11.66 3.19 11.84 2.73 12.02 2.26 12.19 1.77 12.34 1.28 12.5.77 12.62.26 12.76-.26 12.76-.77 12.62-1.28 12.5-1.77 12.34-2.26 12.19-2.73 12.02-3.19 11.84-3.64 11.66-4.09 11.45-4.52 11.25-4.94 11.03-5.36 10.8-5.75 10.56-6.15 10.32-6.53 10.05-6.9 9.79-7.27 9.5-7.61 9.22-7.95 8.91-8.29 8.61-8.6 8.28-8.92 7.96-9.21 7.61-9.51 7.26-9.78 6.9-10.06 6.53-10.31 6.15-10.56 5.76-10.8 5.35-11.03 4.94-11.25 4.52-11.46 4.09-11.65 3.65-11.85 3.19-12.02 2.73-12.18 2.25-12.35 1.78-12.49 1.27-12.63.78-12.76.26-12.75-.26-12.63-.78-12.49-1.27-12.35-1.78-12.18-2.25-12.02-2.73-11.85-3.19-11.65-3.65-11.46-4.09-11.25-4.52-11.03-4.94-10.8-5.35-10.56-5.76-10.31-6.15-10.06-6.53-9.78-6.9-9.51-7.26-9.21-7.61-8.92-7.96-8.6-8.28-8.29-8.61-7.95-8.91-7.62-9.22-7.26-9.5-6.9-9.79-6.53-10.05-6.15-10.32-5.75-10.56-5.36-10.8-4.94-11.03-4.52-11.25-4.09-11.45-3.64-11.66-3.2-11.84-2.72-12.02-2.26-12.19-1.77-12.34-1.28-12.5-.77-12.62-.27-12.76.27-12.76.77-12.62 1.28-12.5 1.77-12.34 2.26-12.19 2.72-12.02 3.2-11.84 3.64-11.66 4.09-11.45 4.52-11.25 4.94-11.03 5.36-10.8 5.75-10.56 6.15-10.32 6.53-10.05 6.9-9.79 7.26-9.5 7.62-9.22 7.95-8.91 8.29-8.61 8.6-8.28 8.92-7.96 9.21-7.61 9.51-7.26 9.78-6.9 10.06-6.53 10.31-6.15 10.56-5.76 10.8-5.35 11.03-4.95 11.25-4.52 11.46-4.08 11.65-3.65 11.85-3.19 12.02-2.73 12.18-2.25 12.35-1.78 12.49-1.28 12.63-.77L315.47 0l12.76.26zm-47.68 39.23l-10.96 1.11-10.83 1.55-10.69 1.97-10.53 2.39-10.37 2.79-10.21 3.18-10.02 3.58-9.84 3.95-9.64 4.32-9.44 4.67-9.23 5.03-9.01 5.38-8.77 5.7-8.54 6.03-8.29 6.35-8.04 6.65-7.77 6.95-7.5 7.23-7.22 7.52-6.92 7.79-6.63 8.05-6.32 8.3-6.01 8.55-5.68 8.78-5.34 9-5.01 9.23-4.65 9.43-4.29 9.63-3.93 9.82-3.55 10.01-3.16 10.17-2.78 10.34-2.36 10.5-1.96 10.63-1.54 10.78-1.11 10.9-.67 11.03-.22 11.13.22 11.21.68 11.08 1.12 10.97 1.55 10.83 1.97 10.68 2.38 10.53 2.79 10.38 3.19 10.2 3.57 10.03 3.95 9.83 4.32 9.65 4.68 9.44 5.03 9.23 5.37 9 5.71 8.78 6.03 8.54 6.34 8.29 6.65 8.03 6.95 7.78 7.24 7.49 7.52 7.22 7.78 6.93 8.05 6.63 8.3 6.32 8.55 6 8.78 5.68 9.01 5.35 9.22 5 9.44 4.65 9.63 4.3 9.82 3.92 10 3.55 10.18 3.17 10.34 2.77 10.49 2.37 10.64 1.95 10.78 1.54 10.9 1.11 11.02.67 11.13.23 11.14-.23 11.02-.68 10.9-1.12 10.78-1.54 10.64-1.98 10.49-2.38 10.34-2.79 10.18-3.19 10-3.57 9.82-3.95 9.63-4.32 9.44-4.68 9.22-5.03 9.01-5.37 8.78-5.7 8.54-6.03 8.31-6.35 8.05-6.65 7.78-6.95 7.52-7.23 7.24-7.52 6.95-7.79 6.65-8.05 6.34-8.3 6.03-8.55 5.71-8.78 5.37-9 5.03-9.23 4.68-9.43 4.32-9.63 3.95-9.82 3.57-10.01 3.18-10.17 2.79-10.34 2.39-10.5 1.97-10.64 1.55-10.77 1.12-10.91.67-11.02.23-11.13-.22-11.13-.68-11.03-1.1-10.9-1.54-10.78-1.96-10.63-2.37-10.5-2.77-10.34L573 225.2l-3.55-10.01-3.93-9.82-4.29-9.63-4.65-9.43-5.01-9.23-5.35-9-5.67-8.78-6.01-8.55-6.32-8.3-6.63-8.05-6.92-7.79-7.22-7.52-7.5-7.23-7.77-6.95-8.04-6.65-8.29-6.35-8.54-6.03-8.77-5.7-9.01-5.38-9.23-5.03-9.44-4.67-9.64-4.32-9.84-3.95-10.03-3.58-10.2-3.18-10.37-2.79-10.53-2.39-10.69-1.97-10.83-1.55-10.96-1.11-11.09-.68-11.21-.23-11.2.23z"/><path id="f" d="M549.52 106.67c-54.89-47.64-126.34-76.64-205.05-76.64-52.81 0-101.49 13.47-144.98 36.25 35.21-17.61 74.56-26.93 115.98-26.93 81.82 0 156.38 37.28 206.09 95.28 57.99 49.71 94.24 123.23 94.24 206.08 0 41.43-9.32 80.78-25.89 115.99 22.78-43.5 36.24-93.2 36.24-146.02 0-78.71-28.99-150.16-76.63-204.01z"/><path id="g" d="M110.43 544.72c54.88 47.64 126.34 76.64 204.01 76.64 52.81 0 101.49-13.46 144.98-36.25C424.21 601.68 384.86 611 343.44 611c-81.82 0-156.38-37.28-206.09-95.27-57.99-49.71-95.27-123.24-95.27-206.09 0-41.42 9.32-80.77 25.89-115.98-20.72 44.53-34.18 94.24-34.18 147.05 0 78.71 29 150.16 76.64 204.01z"/><path id="i" d="M164.23 406.69c-12.41-29.27-15.96-62.96-9.75-94.88 6.2-31.93 20.39-62.08 40.79-87.79-1.78 22.17 6.2 45.22 21.28 62.07-8.87-42.56 5.32-88.67 33.69-122.37 28.38-33.7 67.4-55.87 108.19-70.94-20.4 21.28-23.06 54.98-15.08 83.35 7.98 28.38 24.83 53.21 39.9 78.92 15.08 25.72 29.27 52.32 30.15 81.58 7.98-15.07 16.85-30.15 22.17-46.99 5.32-16.85 7.98-34.59 3.55-51.44 15.96 19.51 24.83 39.02 29.26 63.85 4.44 24.83 3.55 50.54.89 75.37-3.55 27.49-10.64 55.87-25.72 78.92-17.73 27.49-46.11 47-77.14 57.64-54.98 9.76-109.07 1.78-150.75-34.58-19.51-22.17-39.01-45.22-51.43-72.71z"/><path id="j" d="M395.9 386.97c0-.89-.89-.89-.89-1.78 3.55 36.36-5.32 62.96-22.17 78.04 8.87-21.29 2.66-46.11-7.98-67.4-10.64-20.39-25.71-39.01-37.24-58.52-11.53-20.4-20.39-43.45-15.07-66.51-21.29 15.96-36.36 39.91-42.57 65.62-6.2 25.72-2.66 54.09 8.87 78.03-13.3-9.75-23.05-25.71-23.94-42.56-14.19 16.85-23.06 39.02-22.17 61.19 0 34.58 27.49 65.62 58.52 78.03 72.72 28.38 144.54-57.64 104.64-124.14z"/><filter id="h" x="0" y="0" width="1" height="1" color-interpolation-filters="sRGB"><feColorMatrix type="hueRotate" values="331" result="color1"/><feColorMatrix type="saturate" values="1" result="color2"/></filter></defs><use fill="none" xlink:href="#a"/><use fill="none" xlink:href="#b"/><use fill="none" xlink:href="#c"/><use fill="none" xlink:href="#d"/><use fill="none" xlink:href="#e"/><use fill="none" xlink:href="#f"/><use fill="none" xlink:href="#g"/><g transform="translate(-152.715 -139.064) scale(1.50507)" filter="url(#h)"><use fill="#ebbc53" xlink:href="#i"/><use fill="none" xlink:href="#i"/><use fill="#fde0a7" xlink:href="#j"/><use fill="none" xlink:href="#j"/></g></svg>