<svg height="640" width="640" xmlns="http://www.w3.org/2000/svg" xmlns:xlink="http://www.w3.org/1999/xlink"><defs><path id="a" d="M9.32 329.32C9.32 158.45 149.13 18.64 320 18.64s310.68 139.81 310.68 310.68S490.87 640 320 640 9.32 500.19 9.32 329.32z"/><path id="b" d="M320 19.68c-160.72 0-291 130.28-291 291s130.28 291 291 291 291-130.28 291-291-130.28-291-291-291z"/><path id="c" d="M354.17 54.89c71.46 0 136.7 25.89 187.45 68.35C488.8 60.06 409.06 19.68 320 19.68c-160.52 0-291 130.48-291 291 0 89.06 40.39 168.8 103.56 222.65-43.5-50.74-69.39-115.98-69.39-187.44 0-160.52 130.49-291 291-291z"/><path id="d" d="M526.08 105.63C640 219.55 640 403.88 526.08 517.8c-113.91 113.92-298.25 113.92-412.16 0"/><path id="e" d="M345.38 1.03l12.5 1.28 12.34 1.78 12.19 2.25 12.02 2.73 11.84 3.19 11.66 3.65 11.45 4.08 11.25 4.52 11.03 4.95 10.8 5.35 10.56 5.76 10.32 6.15 10.05 6.53 9.79 6.9 9.5 7.26 9.22 7.61 8.91 7.96 8.61 8.28 8.28 8.61 7.96 8.91 7.61 9.22 7.26 9.5 6.9 9.79 6.53 10.05 6.15 10.32 5.76 10.56 5.35 10.8 4.95 11.03 4.52 11.25 4.08 11.45 3.65 11.66 3.19 11.84 2.73 12.02 2.25 12.19 1.78 12.34 1.27 12.5.78 12.62.26 12.76-.26 12.76-.78 12.62-1.27 12.5-1.78 12.34-2.25 12.19-2.73 12.02-3.19 11.84-3.65 11.66-4.08 11.45-4.52 11.25-4.95 11.03-5.35 10.8-5.76 10.56-6.15 10.32-6.53 10.05-6.9 9.79-7.26 9.5-7.61 9.22-7.96 8.91-8.28 8.61-8.61 8.28-8.91 7.96-9.22 7.61-9.5 7.26-9.79 6.9-10.05 6.53-10.32 6.15-10.56 5.76-10.8 5.35-11.03 4.94-11.25 4.52-11.45 4.09-11.66 3.65-11.84 3.19-12.02 2.73-12.19 2.25-12.34 1.78-12.5 1.27-12.62.78-12.76.26-12.76-.26-12.62-.78-12.5-1.27-12.34-1.78-12.19-2.25-12.02-2.73-11.84-3.19-11.66-3.65-11.45-4.09-11.25-4.52-11.03-4.94-10.8-5.35-10.56-5.76-10.32-6.15-10.05-6.53-9.79-6.9-9.5-7.26-9.22-7.61-8.91-7.96-8.61-8.28-8.28-8.61-7.96-8.91-7.61-9.22-7.26-9.5-6.9-9.79-6.53-10.05-6.15-10.32-5.76-10.56-5.35-10.8-4.95-11.03-4.52-11.25-4.08-11.45-3.65-11.66-3.19-11.84-2.73-12.02-2.25-12.19-1.78-12.34-1.27-12.5-.78-12.62-.26-12.76.26-12.76.78-12.62 1.27-12.5 1.78-12.34 2.25-12.19 2.73-12.02 3.19-11.84 3.65-11.66 4.08-11.45 4.52-11.25 4.95-11.03 5.35-10.8 5.76-10.56 6.15-10.32 6.53-10.05 6.9-9.79 7.26-9.5 7.61-9.22 7.96-8.91 8.28-8.61 8.61-8.28 8.91-7.96 9.22-7.61 9.5-7.26 9.79-6.9 10.05-6.53 10.32-6.15 10.56-5.76 10.8-5.35 11.03-4.95 11.25-4.52 11.45-4.08 11.66-3.65 11.84-3.19 12.02-2.73 12.19-2.25 12.34-1.78 12.5-1.28 12.62-.77L320 0l12.76.26zM297.7 40.26l-10.96 1.11-10.83 1.55-10.68 1.97-10.53 2.39-10.38 2.79-10.2 3.18-10.03 3.58-9.83 3.95-9.65 4.32-9.44 4.67-9.23 5.03-9 5.38-8.78 5.7-8.54 6.03-8.29 6.35-8.03 6.65-7.78 6.95-7.49 7.23-7.22 7.52-6.93 7.79-6.63 8.05-6.32 8.3-6 8.55-5.68 8.78-5.35 9-5 9.23-4.65 9.43-4.3 9.63-3.92 9.82-3.55 10.01-3.17 10.17-2.77 10.34-2.37 10.5-1.95 10.63-1.54 10.78-1.11 10.9-.67 11.03-.23 11.13.23 11.21.68 11.08 1.12 10.97 1.54 10.83 1.98 10.68 2.38 10.53 2.79 10.38 3.19 10.2 3.57 10.03 3.95 9.83 4.32 9.65 4.67 9.44 5.03 9.23 5.38 9 5.7 8.78 6.03 8.54 6.35 8.29 6.65 8.03 6.95 7.78 7.23 7.49 7.52 7.22 7.79 6.93 8.05 6.63 8.3 6.32 8.55 6 8.78 5.68 9 5.35 9.23 5 9.43 4.65 9.63 4.3 9.82 3.92 10.01 3.55 10.17 3.17 10.34 2.77 10.5 2.37 10.64 1.95 10.77 1.54 10.9 1.11 11.03.67 11.13.23 11.13-.23 11.03-.68 10.9-1.12 10.77-1.54 10.64-1.98 10.5-2.38 10.34-2.79 10.17-3.19 10.01-3.57 9.82-3.95 9.63-4.32 9.43-4.68 9.23-5.03 9-5.37 8.78-5.7 8.55-6.03 8.3-6.35 8.05-6.65 7.79-6.95 7.52-7.23 7.23-7.52 6.95-7.79 6.65-8.05 6.35-8.3 6.03-8.55 5.7-8.78 5.38-9 5.03-9.23 4.67-9.43 4.32-9.63 3.95-9.82 3.57-10.01 3.19-10.17 2.79-10.34 2.38-10.5 1.98-10.64 1.54-10.77 1.12-10.91.68-11.02.23-11.13-.23-11.13-.67-11.03-1.11-10.9-1.54-10.78-1.95-10.63-2.37-10.5-2.77-10.34-3.17-10.17-3.55-10.01-3.92-9.82-4.3-9.63-4.65-9.43-5-9.23-5.35-9-5.68-8.78-6-8.55-6.32-8.3-6.63-8.05-6.93-7.79-7.22-7.52-7.49-7.23-7.78-6.95-8.03-6.65-8.29-6.35-8.54-6.03-8.78-5.7-9-5.38-9.23-5.03-9.44-4.67-9.65-4.32-9.83-3.95-10.03-3.58-10.2-3.18-10.38-2.79-10.53-2.39-10.68-1.97-10.83-1.55-10.96-1.11-11.09-.68-11.21-.23-11.21.23z"/><path id="f" d="M554.05 106.67C499.16 59.03 427.7 30.03 349 30.03c-52.82 0-101.49 13.47-144.99 36.25C239.22 48.67 278.58 39.35 320 39.35c81.81 0 156.38 37.28 206.08 95.28 58 49.71 94.24 123.23 94.24 206.08 0 41.43-9.32 80.78-25.89 115.99 22.79-43.5 36.25-93.2 36.25-146.02 0-78.71-29-150.16-76.63-204.01z"/><path id="g" d="M114.95 544.72c54.89 47.64 126.34 76.64 204.01 76.64 52.82 0 101.49-13.46 144.99-36.25C428.74 601.68 389.39 611 347.96 611c-81.81 0-156.37-37.28-206.08-95.27-58-49.71-95.28-123.24-95.28-206.09 0-41.42 9.32-80.77 25.89-115.98-20.71 44.53-34.17 94.24-34.17 147.05 0 78.71 28.99 150.16 76.63 204.01z"/><path id="h" d="M307.17 581.85c2.69.04 6.62.41 9.94.36 2.35-.04 5.07-.4 6.14-.36 11.51.46 21.11-.55 30.13-1.7 15.75-2.01 28.45-4.47 36.6-7.04 2.31-.72 12.4-3.77 19.03-6.11 3.58-1.26 5.83-2.31 6.99-2.68 4.04-1.31 2.53-.59 2.53-4.29 0-13.29-5.27-122.97-5.27-136.26 0-19.92 7-32.39 17.88-46.79 12-16.04 18.64-35.92 18.64-55.97v-33.84l-194.79 12.17c31.72 188.3 49.11 282.47 52.18 282.51z"/><path id="i" d="M372.27 200.73v-21.1H254.99v115.66h117.28v-.82h46.26v-93.74z"/><path id="j" d="M258.04 323.69c-15.13 0-27.39-12.26-27.39-27.39V180.65c0-15.13 12.26-27.39 27.39-27.39s27.39 12.26 27.39 27.39V296.3c0 15.13-12.26 27.39-27.39 27.39z"/><path id="k" d="M312.82 323.69c-15.13 0-27.39-12.26-27.39-27.39V180.65c0-15.13 12.26-27.39 27.39-27.39s27.39 12.26 27.39 27.39V296.3c0 15.13-12.26 27.39-27.39 27.39z"/><path id="l" d="M367.6 323.69c-15.12 0-27.39-12.26-27.39-27.39V180.65c0-15.13 12.27-27.39 27.39-27.39 15.13 0 27.39 12.26 27.39 27.39V296.3c0 15.13-12.26 27.39-27.39 27.39z"/><path id="m" d="M422.39 323.69c-15.13 0-27.4-12.26-27.4-27.39V205c0-15.13 12.27-27.4 27.4-27.4 15.12 0 27.39 12.27 27.39 27.4v91.3c0 15.13-12.27 27.39-27.39 27.39z"/><path id="n" d="M232.36 250.65h71.33c13.39 0 24.35-10.96 24.35-24.35s-10.96-24.35-24.35-24.35h-73.04c-42.03 8.37-60.87 36.01-60.87 66.72v40.41c0 28.98 13.14 55.76 36.03 73.53 15.58 12.18 24.84 33.36 24.84 56.49v117.52c0 3.03.81 6.03 2.31 8.41 1.88 2.98 4.83 5.02 8.61 5.02 1.88 0-2.97-.73-1.17 0 .91.36 5.01 1.5 8.92 2.55 1.07.29 2.13.42 3.1.71.46.13.92.27 1.37.4 10.86 3.19 25.83 5.98 32.66 5.78.34-.01-6.53-.56-6.12-.51.48.05 9.83 1.39 10.34 1.5.87.17-7.11-1.12-6.45-.99 3.11.62 6.08.93 8.67 1.4 4.19.75 9.05.75 13.95.66.64-.01-.04-.35.65-.35 0-84.92-3.8-156.08-3.8-239.25 0-26.94-15.86-51.56-40.85-62.92-12.05-5.48-26.96-16.01-30.48-28.38z"/></defs><use fill="#d89e77" xlink:href="#a"/><use fill="none" xlink:href="#a"/><use fill="#d88b56" xlink:href="#b"/><use fill="none" xlink:href="#b"/><use fill="#cc7e48" xlink:href="#c"/><use fill="none" xlink:href="#c"/><use fill="#cc7e48" xlink:href="#d"/><use fill="none" xlink:href="#d"/><use fill="#f7c6a4" xlink:href="#e"/><use fill="none" xlink:href="#e"/><use fill="#e8b18b" xlink:href="#f"/><use fill="none" xlink:href="#f"/><use fill="#e8b18b" xlink:href="#g"/><use fill="none" xlink:href="#g"/><use fill="#e8b18b" xlink:href="#h"/><use fill="none" xlink:href="#h"/><use fill="#f7c6a4" xlink:href="#i"/><use fill="none" xlink:href="#i"/><use fill="#f7c6a4" xlink:href="#j"/><use fill="none" xlink:href="#j"/><use fill="#f7c6a4" xlink:href="#k"/><use fill="none" xlink:href="#k"/><use fill="#f7c6a4" xlink:href="#l"/><use fill="none" xlink:href="#l"/><use fill="#f7c6a4" xlink:href="#m"/><use fill="none" xlink:href="#m"/><use fill="#ffdcc5" xlink:href="#n"/><use fill="none" xlink:href="#n"/></svg>