<svg height="640" width="640" xmlns="http://www.w3.org/2000/svg" xmlns:xlink="http://www.w3.org/1999/xlink"><defs><path id="a" d="M315.38 164.61l1.39.1 1.36.15 1.32.18 1.3.22 1.25.27 1.22.3 1.18.35 1.14.38 1.1.42 1.05.46 1.01.49.96.53.9.57.86.61.8.64.74.67.69.71.63.74.56.78.5.81.44.84.37.88.3.9.22.93.15.94.08.94.01.96-.07.96-.14.96-.21.96-.27.97-.34.97-.41.96-.46.97-.53.96-.59.95-.65.94-.71.94-.77.93-.82.92-.87.9-.92.89-.98.88-1.03.86-1.07.84-1.13.82-1.16.8-1.22.77-1.25.76-1.3.73-1.34.7-1.37.67-1.42.65-1.45.61-1.48.58-1.52.55-1.55.51-1.59.48-1.59.43-1.59.39-1.58.34-1.56.29-1.56.25-1.54.21-1.52.15-1.51.12-1.49.07-1.46.02-1.44-.01-1.42-.06-1.38-.1-1.36-.15-1.32-.18-1.3-.22-1.25-.27-1.22-.3-1.18-.35-1.14-.38-1.1-.42-1.05-.46-1.01-.49-.96-.53-.9-.57-.86-.61-.8-.64-.74-.67-.69-.71-.63-.75-.56-.77-.51-.81-.43-.85-.37-.87-.3-.91-.23-.92-.15-.94-.07-.95-.01-.95.07-.96.14-.96.2-.97.28-.96.34-.97.4-.97.47-.96.53-.96.59-.95.65-.95.71-.93.76-.93.82-.92.88-.9.92-.89.98-.88 1.03-.86 1.07-.84 1.12-.82 1.17-.8 1.21-.77 1.26-.76 1.3-.73 1.33-.7 1.38-.67 1.42-.65 1.45-.61 1.48-.58 1.52-.55 1.55-.51 1.58-.48 1.6-.43 1.59-.39 1.57-.34 1.57-.29 1.56-.25 1.54-.21 1.52-.15 1.51-.12 1.49-.07 1.46-.02 1.44.01z"/><path id="b" d="M339.49 181.67l1.02.13 1 .2.98.27.95.33.94.39.9.47.88.52.83.58.78.64.74.69.7.74.66.79.61.84.57.88.53.94.48.97.44 1.02.39 1.06.35 1.09.31 1.14.26 1.17.22 1.21.18 1.23.13 1.27.09 1.3.05 1.33v1.35l-.04 1.38-.09 1.4-.13 1.42-.17 1.44-.22 1.46-.26 1.48-.31 1.49-.35 1.51-.39 1.51-.44 1.53-.48 1.54-.53 1.54-.57 1.55-.62 1.56-.66 1.56-.7 1.55-.75 1.56-.79 1.56-.83 1.55-.88 1.53-.9 1.49-.92 1.46-.95 1.42-.97 1.39-.99 1.34-1.01 1.31-1.04 1.26-1.04 1.23-1.07 1.18-1.08 1.14-1.09 1.09-1.1 1.05-1.12 1.01-1.12.96-1.13.91-1.14.86-1.14.82-1.14.76-1.15.72-1.15.66-1.15.62-1.14.56-1.15.5-1.14.46-1.13.39-1.12.34-1.12.29-1.11.22-1.09.17-1.09.11-1.07.05-1.05-.02-1.04-.07-1.01-.14-1-.2-.98-.26-.96-.33-.93-.4-.91-.46-.87-.52-.83-.58-.78-.64-.75-.69-.69-.74-.66-.79-.61-.84-.57-.89-.53-.93-.48-.97-.44-1.02-.39-1.06-.35-1.1-.31-1.13-.26-1.17-.22-1.21-.18-1.24-.13-1.27-.09-1.29-.05-1.33v-1.35l.04-1.38.09-1.4.13-1.42.17-1.45.22-1.46.26-1.47.31-1.5.35-1.5.39-1.52.44-1.53.48-1.54.53-1.54.57-1.55.62-1.56.66-1.55.7-1.56.75-1.56.79-1.55.83-1.55.88-1.53.9-1.5.92-1.46.95-1.42.97-1.39.99-1.34 1.01-1.31 1.04-1.26 1.04-1.22 1.07-1.19 1.08-1.13 1.09-1.1 1.1-1.05 1.11-1 1.13-.96 1.13-.92 1.14-.86 1.14-.81 1.14-.77 1.15-.72 1.15-.66 1.15-.61 1.14-.56 1.15-.51 1.14-.45 1.13-.4 1.12-.34 1.12-.28 1.11-.23 1.09-.16 1.09-.11 1.06-.05 1.06.01z"/><path id="c" d="M451.04 49.06l.46.04.46.07.46.08.46.1.46.11.45.14.45.15.45.17.44.19.44.21.43.23 18.48 10.24.42.25.41.26.4.27.38.29.37.3.35.32.34.32.33.34.31.34.3.36.28.37.27.38.25.38.24.4.22.4.21.41.19.42.17.42.16.43.14.44.13.44.11.44.09.45.07.45.06.46.04.45.03.46v.46l-.01.47-.02.46-.05.46-.06.47-.09.46-.1.46-.12.45-.13.46-.16.45-.18.45-.19.45-.21.44L326.5 377.1l-38.94 76.42-58.11 114.03-.83 1.56-.9 1.51-.94 1.47-1 1.41-1.05 1.36-1.1 1.3-1.14 1.26-1.19 1.2-1.23 1.14-1.26 1.09-1.31 1.04-1.35.98-1.37.93-1.41.86-1.45.81-1.46.75-1.5.69-1.52.64-1.54.57-1.57.51-1.58.45-1.6.39-1.61.33-1.63.26-1.64.2-1.65.13-1.65.07-1.66.01-1.66-.06-1.67-.13-1.66-.2-1.66-.26-1.65-.33-1.65-.4-1.64-.47-1.63-.54-1.62-.61-1.6-.69-1.59-.75-1.57-.83-1.53-.89-1.48-.94-1.43-1-1.37-1.05-1.32-1.09-1.27-1.15-1.22-1.18-1.15-1.23-1.11-1.27-1.04-1.31-.99-1.34-.94-1.38-.87-1.41-.82-1.44-.76-1.46-.69-1.5-.64-1.52-.58-1.54-.52-1.56-.46-1.58-.39-1.6-.33-1.61-.27-1.63-.21-1.63-.14-1.65-.08-1.65-.01-1.65.05-1.66.12-1.66.19-1.66.25-1.65.32-1.65.39-1.65.46-1.63.52-1.62.6-1.61.67-1.6.73-1.58.81-1.56.89-1.54L439.65 54.93l.26-.41.28-.4.29-.39.3-.37.31-.36.33-.35.33-.32.35-.32.36-.3.37-.28.37-.27.39-.26.39-.23.41-.23.41-.2.41-.2.43-.17.43-.16.43-.14.44-.13.45-.11.44-.09.46-.08.45-.06.46-.04.46-.03.46-.01.46.01z"/><path id="d" d="M444.52 83.77l.78.16.78.22.76.3.75.37.71.43.65.49.6.54.55.58.49.63.43.66.37.69.3.71.25.74.18.76.12.77.05.78-.01.79-.09.78-.15.79-.23.77-.29.76-.37.75-8.86 15.98-.44.71-.49.66-.53.6-.59.54-.62.49-.66.43-.69.37-.72.31-.74.24-.75.19-.77.12-.79.05-.78-.02-.79-.08-.78-.16-.77-.22-.77-.3-.74-.37-.71-.43-.66-.49-.6-.54-.54-.58-.49-.62-.43-.66-.37-.69-.31-.72-.25-.74-.18-.76-.12-.77-.05-.78.02-.78.08-.79.15-.78.23-.78.3-.76.37-.75 8.86-15.98.43-.71.49-.65.54-.61.58-.54.62-.49.66-.43.69-.37.72-.31.74-.24.76-.19.77-.11.78-.06.78.02z"/><path id="e" d="M373.44 220.28l.35.04.35.04.36.06.35.07.35.09.35.1.34.12.35.13.34.14.33.17.34.17.32.19.32.2.3.21.3.22.28.24.27.24.26.25.25.26.23.27.23.27.21.29.21.29.19.3.17.3.17.31.15.32.14.32.13.33.12.33.1.33.09.34.08.34.06.35.05.35.04.35.03.35.01.35-.01.35-.01.36-.03.35-.05.36-.06.35-.07.35-.09.35-.1.35-.12.35-.13.34-.14.34-.16.34-.18.33-45.41 81.92-.19.33-.2.32-.21.3-.22.29-.24.28-.24.28-.25.26-.26.24-.27.24-.27.23-.29.21-.29.2-.3.19-.3.18-.31.17-.32.15-.32.14-.33.13-.33.11-.33.11-.34.09-.35.07-.34.07-.35.05-.35.04-.35.02-.35.01h-.36l-.35-.02-.35-.03-.36-.04-.35-.06-.35-.07-.35-.09-.35-.1-.35-.12-.34-.13-.34-.15-.34-.16-.33-.17-.33-.19-.31-.2-.31-.21-.29-.23-.28-.23-.27-.24-.26-.25-.25-.26-.24-.27-.23-.28-.21-.28-.2-.29-.19-.3-.18-.31-.16-.31-.16-.31-.14-.32-.13-.33-.11-.33-.11-.34-.09-.34-.07-.34-.07-.34-.05-.35-.04-.35-.02-.35-.01-.35v-.36l.02-.35.03-.36.04-.35.06-.35.08-.36.08-.35.11-.34.11-.35.13-.34.15-.34.16-.34.18-.33 45.41-81.93.19-.32.2-.32.21-.3.22-.3.23-.28.24-.27.26-.26.26-.25.26-.23.28-.23.28-.21.3-.21.29-.19.31-.17.31-.17.32-.15.32-.14.32-.13.34-.12.33-.1.34-.09.34-.08.35-.06.34-.05.35-.04.36-.02.35-.02.35.01z"/><path id="f" d="M311.48 373.73l1.56.14 1.57.2 1.55.25 1.56.31 1.54.37 1.54.43 1.53.5 1.52.55 1.51.61-38.94 76.43-1.46-.92-1.42-.96-1.36-1.01-1.32-1.06-1.26-1.1-1.22-1.15-1.16-1.18-1.11-1.23-1.06-1.26-1.01-1.29-.95-1.33-.9-1.37-.85-1.39-.79-1.42-.73-1.44-.68-1.48-.62-1.49-.57-1.52-.51-1.53-.45-1.55-.39-1.57-.34-1.58-.27-1.6-.22-1.61-.15-1.61-.09-1.62-.04-1.63.03-1.63.1-1.63.15-1.64.22-1.63.28-1.62.35-1.63.41-1.61.48-1.61.54-1.59.61-1.59.68-1.56.74-1.56.81-1.53.84-1.44.88-1.4.92-1.34.97-1.31 1.01-1.26 1.05-1.21 1.09-1.17 1.13-1.12 1.16-1.07 1.2-1.02 1.23-.98 1.26-.93 1.29-.88 1.32-.83 1.35-.77 1.37-.73 1.4-.68 1.41-.63 1.44-.57 1.46-.53 1.47-.47 1.49-.42 1.5-.36 1.52-.31 1.52-.26 1.54-.2 1.55-.14 1.55-.09 1.55-.04 1.56.03z"/><path id="g" d="M311.48 373.73l1.56.14 1.57.2 1.55.25 1.56.31 1.54.37 1.54.43 1.53.5 1.52.55 1.51.61-3.22 6.33-1.03.1-1.03.13-1.02.15-1.02.17-1.02.2-1 .22-1.01.25-.99.27-.99.3-.98.31-.98.35-.96.36-.96.39-.95.41-.94.44-.93.45-.92.48-.91.5-.89.53-.89.55-.87.57-.86.59-.84.61-.84.64-.82.65-.8.68-.79.7-.77.72-.76.74-.74.77-.72.78-.71.8-.69.83-.67.84-.65.87-.63.88-.62.91-.59.93-.57.94-.55.97-.56 1.05-.54 1.05-.5 1.07-.46 1.07-.44 1.08-.4 1.09-.38 1.09-.34 1.1-.31 1.1-.29 1.11-.25 1.11-.22 1.11-.19 1.11-.16 1.12-.13 1.12-.1 1.12-.07 1.11-.04 1.12-.02 1.12.02 1.11.04 1.12.08 1.11.1 1.1.13 1.1.16 1.1.18 1.09.22 1.09.24 1.08.27 1.08.3 1.06.32 1.06.35 1.05.38 1.04.4 1.03.44 1.02.45 1.01.49 1 .51.99.53.97.56.96-2.58 5.1-1.46-.92-1.42-.96-1.36-1.01-1.32-1.06-1.26-1.1-1.22-1.15-1.16-1.18-1.11-1.23-1.06-1.26-1.01-1.29-.95-1.33-.9-1.37-.85-1.39-.79-1.42-.73-1.44-.68-1.48-.62-1.49-.57-1.52-.51-1.53-.45-1.55-.39-1.57-.34-1.58-.27-1.6-.22-1.61-.15-1.61-.09-1.62-.04-1.63.03-1.63.1-1.63.15-1.64.22-1.63.28-1.62.35-1.63.41-1.61.48-1.61.54-1.59.61-1.59.68-1.56.74-1.56.81-1.53.84-1.44.88-1.4.92-1.34.97-1.31 1.01-1.26 1.05-1.21 1.09-1.17 1.13-1.12 1.16-1.07 1.2-1.02 1.23-.98 1.26-.93 1.29-.88 1.32-.83 1.35-.77 1.37-.73 1.4-.68 1.41-.63 1.44-.57 1.46-.53 1.47-.47 1.49-.42 1.5-.36 1.52-.31 1.52-.26 1.54-.2 1.55-.14 1.55-.09 1.55-.04 1.56.03z"/><path id="h" d="M625.77 178.25l.55.16.53.19.52.22.5.23.49.26.47.27.46.29.44.32.42.33.4.35.39.36.37.38.35.4.33.4.31.43.29.43.28.45.25.46.23.46.21.48.2.49.17.49.14.5.13.51.11.51.08.52.06.52.03.53.02.53-.02.53-.03.53-.06.53-.09.54-.1.53-.14.53-.16.52-.19.53-.21.52-.24.51-.27.51-92.36 166.63-.31.53-.33.51-.36.48-.37.46-.39.43-.41.42-.42.38-.44.37-.45.34-.47.32-.48.29-.49.27-.5.24-.51.22-.52.2-.53.17-.54.15-.54.12-.54.09-.55.08-.55.04-.55.02h-.55l-.56-.03-.55-.06-.55-.08-.54-.1-.55-.14-.53-.15-.53-.19-.53-.21-.51-.24-.51-.26-.5-.29-.48-.32-.48-.34-.46-.37-.44-.4-.43-.42-.42-.45-101.58-115.92-26.45-30.19 50.17-90.5 38.74 10.76z"/><path id="i" d="M482.11 138.46l-.04.11-.04.1-.03.1-.04.11-.04.1-.04.1-.04.1-.04.11-.04.1-.04.1-.04.1-.04.11-.04.1-.05.1-.04.1-.04.1-.05.11-.04.1-.05.1-.04.1-.05.1-.04.1-.05.1-.05.11-.05.1-.04.1-.05.1-.05.1-.05.1-.05.1-.05.1-.05.1-.06.1-.05.1-.05.1-.05.1-.06.1-.05.1-.06.1L425.69 241l-.12.22-.13.21-.12.21-.12.21-.13.21-.13.2-.13.21-.13.2-.13.2-.14.2-.13.2-.14.19-.14.2-.14.19-.15.19-.14.19-.15.19-.14.19-.15.18-.15.18-.15.18-.16.18-.15.18-.16.18-.15.17-.16.18-.16.17-.17.17-.16.17-.16.16-.17.17-.17.16-.16.16-.17.16-.17.16-.18.16-.17.15-.17.16-.18.15-.18.15-26.45-30.19 50.17-90.5 38.74 10.76z"/><path id="j" d="M626.32 178.41l.53.19.52.22.5.23.49.26.47.27.46.29.44.32.42.33.4.35.39.36.37.38.35.4.33.4.31.43.29.43.28.45.25.46.23.46.21.48.2.49.17.49.14.5.13.51.11.51.08.52.06.52.03.53.02.53-.02.53-.03.53-.06.53-.09.54-.1.53-.14.53-.16.52-.19.53-.21.52-.24.51-.27.51-92.36 166.63-.31.53-.33.51-.36.48-.37.46-.39.43-.41.42-.42.38-.44.37-.45.34-.47.32-.48.29-.49.27-.5.24-.51.22-.52.2-.53.17-.54.15-.54.12-.54.09-.55.08-.55.04-.55.02h-.55l-.56-.03-.55-.06-.55-.08-.54-.1-.55-.14-.53-.15-.53-.19-.53-.21-.51-.24-.51-.26-.5-.29-.48-.32-.48-.34-.46-.37-.44-.4-.43-.42-.42-.45-12.12-13.83.1-.07.1-.08.1-.07.1-.08.09-.08.1-.08.1-.08.09-.08.09-.08.1-.09.09-.08.09-.09.09-.09.09-.08.09-.09.09-.09.09-.1.09-.09.08-.09.09-.1.08-.1.08-.09.09-.1.08-.1.08-.1.08-.1.08-.11.08-.1.07-.11.08-.1.08-.11.07-.11.07-.11.08-.11.07-.12.07-.11.07-.11.07-.12.06-.12.07-.12 92.37-166.63.09-.17.09-.17.09-.17.08-.18.08-.17.08-.17.07-.18.07-.17.07-.18.07-.17.06-.18.06-.18.06-.17.05-.18.05-.18.05-.18.04-.18.04-.17.04-.18.04-.18.03-.18.03-.18.03-.18.03-.18.02-.18.02-.18.01-.18.02-.18.01-.17.01-.18v-.18l.01-.18v-.36l-.01-.17-.01-.18-.01-.18-.01-.17-.02-.18-.01-.18 19.46 5.42z"/><path id="k" d="M349.35 80.6l.92.08.92.11.92.15.92.2.92.22.9.27.91.3.89.34.89.38.88.42.87.46 48.6 26.94-47.69 86.03-48.6-26.94-.85-.49-.82-.53-.79-.55-.77-.58-.73-.6-.71-.63-.68-.65-.64-.68-.62-.7-.59-.72-.56-.74-.52-.76-.5-.78-.46-.79-.43-.81-.4-.83-.37-.84-.33-.85-.31-.86-.26-.88-.24-.88-.2-.89-.17-.9-.13-.91-.1-.91-.06-.91-.03-.92.01-.92.04-.93.08-.92.12-.92.15-.92.19-.92.23-.91.27-.91.3-.9.34-.9.38-.88.42-.88.46-.87 24.6-44.38.49-.84.52-.82.55-.8.58-.76.61-.74.63-.7.65-.68.68-.65.69-.61.73-.59.74-.56.75-.53.78-.49.8-.46.81-.44.82-.4.84-.36.85-.34.86-.3.88-.27.88-.23.89-.21.9-.16.91-.14.91-.09.91-.07.92-.03.93.01z"/><path id="l" d="M360.2 196.5l-29.44-16.32 47.69-86.03 29.44 16.32z"/><path id="m" d="M405.65 88.69l.46.04.46.06.46.08.46.09.45.12.46.13.45.15.45.17.44.19.44.21.43.23 52.58 29.15.43.24.41.26.4.28.38.29.37.3.35.32.34.32.32.34.31.35.3.36.27.37.27.38.24.39.24.4.21.4.2.41.19.42.16.43.15.43.14.44.12.44.1.44.08.45.07.46.04.45.04.46.01.46v.46l-.03.46-.04.46-.06.46-.07.46-.1.46-.11.46-.13.45-.16.45-.17.45-.19.44-.21.44-.23.44-54.64 98.59-.25.42-.26.41-.28.4-.29.38-.3.37-.31.35-.33.34-.34.32-.35.31-.36.3-.37.27-.38.27-.39.24-.39.24-.41.21-.41.2-.42.19-.42.16-.44.16-.43.13-.44.12-.45.1-.45.08-.45.07-.46.05-.46.03-.46.01h-.46l-.46-.02-.46-.04-.46-.06-.46-.08-.46-.09-.46-.11-.45-.14-.45-.15-.45-.17-.44-.19-.44-.21-.44-.23-52.58-29.15-.42-.24-.41-.26-.4-.28-.38-.29-.37-.3-.35-.32-.34-.32-.33-.34-.3-.35-.3-.36-.28-.37-.26-.38-.25-.39-.23-.4-.21-.4-.2-.42-.19-.41-.17-.43-.15-.43-.13-.44-.12-.44-.1-.45-.08-.45-.07-.45-.05-.46-.03-.45-.01-.46v-.46l.02-.47.04-.46.06-.46.08-.46.09-.46.12-.45.13-.46.15-.45.17-.45.19-.44.21-.44.23-.43 54.65-98.59.24-.43.27-.41.27-.39.29-.39.3-.36.32-.36.32-.33.34-.33.35-.31.36-.29.37-.28.38-.26.39-.25.4-.23.4-.22.42-.2.42-.18.42-.17.43-.15.44-.13.44-.12.45-.1.45-.08.45-.07.46-.05.45-.03.46-.01h.46z"/><path id="n" d="M413.18 234.08l-.24.42-.26.41-.28.4-.29.38-.3.37-.32.35-.32.34-.34.33-.35.31-.36.29-.37.28-.38.26-.39.25-.39.23-.41.22-.41.2-.42.18-.43.17-.43.15-.43.13-.44.12-.45.1-.45.08-.45.07-.46.05-.46.03-.46.02-.46-.01-.46-.02-.46-.04-.46-.06-.46-.08-.46-.09-.46-.11-.45-.14-.45-.15-.45-.17-.44-.19-.44-.21-.44-.23-52.58-29.15-.42-.24-.41-.26-.4-.28-.38-.29-.37-.3-.35-.32-.34-.32-.33-.34-.3-.35-.3-.36-.28-.37-.26-.38-.25-.39-.23-.4-.21-.4-.2-.41-.19-.42-.17-.43-.15-.43-.13-.44-.12-.44-.1-.44-.08-.45-.07-.46-.05-.45-.03-.46-.02-.46.01-.46.02-.46.04-.46.06-.47.07-.46.1-.45.11-.46.14-.45.15-.46.17-.44.19-.45.21-.44.23-.43 7.23-13.04 84.52 20.63z"/><path id="o" d="M347.7 171.24l.37.03.36.05.37.07.37.08 84.53 20.64.36.1.36.11.34.12.35.14.33.14.32.17.32.17.31.18.3.2.29.21.28.21.27.23.26.24.25.25.24.25.24.27.22.27.21.28.2.29.18.3.18.3.16.31.16.32.14.32.13.33.11.33.11.34.09.34.07.35.07.35.05.35.04.36.02.35.01.37-.01.36-.02.36-.04.37-.05.37-.06.36-.09.37-.09.37-.11.35-.13.35-.13.34-.15.34-.16.32-.18.32-.18.31-.2.3-.21.29-.21.28-.23.27-.24.26-.25.25-.25.24-.27.23-.27.23-.28.21-.29.19-.3.19-.3.18-.31.16-.32.16-.32.14-.32.13-.34.11-.33.1-.35.09-.34.08-.35.07-.35.05-.36.03-.36.03h-.72l-.37-.02-.36-.04-.37-.05-.37-.07-.37-.08-84.52-20.64-.06-.01-.06-.02-.06-.01-.06-.02-.06-.01-.06-.02-.06-.02-.06-.02-.06-.01-.06-.02-.06-.02-.06-.02-.06-.02-.05-.02-.06-.02-.06-.02-.06-.02-.05-.02-.06-.02-.06-.03-.06-.02-.05-.02-.06-.02-.05-.03-.06-.02-.06-.03-.05-.02-.06-.02-.05-.03-.06-.03-.05-.02-.06-.03-.05-.02-.05-.03-.06-.03-.05-.03-.06-.02-.05-.03-.05-.03-.05-.03-.26-.15-.26-.16-.25-.16-.24-.18-.23-.18-.23-.19-.22-.19-.22-.2-.21-.21-.2-.21-.19-.22-.19-.23-.18-.23-.17-.24-.16-.24-.16-.25-.15-.25-.14-.26-.13-.26-.12-.26-.12-.27-.11-.28-.09-.27-.09-.28-.08-.29-.07-.29-.06-.28-.06-.3-.04-.29-.03-.3-.03-.3-.01-.3v-.6l.02-.3.03-.31.03-.31.05-.3.06-.31.07-.31.1-.36.11-.36.12-.35.14-.34.15-.33.16-.33.17-.31.19-.31.19-.3.21-.29.22-.28.23-.27.23-.27.25-.25.26-.24.26-.23.27-.22.29-.21.28-.2.3-.19.3-.17.31-.17.32-.15.32-.14.33-.13.33-.12.34-.1.34-.09.35-.08.35-.06.35-.05.36-.04.35-.02.36-.01.37.01z"/><path id="p" d="M444.36 177.85l-73.41-40.7 15.59-28.12 73.41 40.7z"/><path id="q" d="M371.57 128.04l.35.03.35.04.36.06.35.07.35.09.35.1.35.12.34.13.34.15.34.16.33.17 70.4 39.02.32.19.32.2.3.22.29.22.29.23.27.24.26.25.25.26.23.27.23.28.21.28.2.29.19.3.18.31.17.31.15.31.14.32.13.33.12.33.1.34.09.34.08.34.06.34.05.35.04.35.02.35.01.35v.36l-.02.35-.03.36-.04.35-.06.35-.07.36-.09.35-.1.34-.12.35-.13.34-.15.34-.16.34-.17.33-.19.33-.2.31-.21.31-.23.29-.23.28-.24.28-.25.26-.26.24-.27.24-.27.23-.29.21-.29.2-.3.19-.3.18-.31.17-.32.15-.32.14-.33.13-.33.11-.33.11-.34.09-.35.07-.34.07-.35.05-.35.04-.35.02-.35.01h-.36l-.35-.02-.35-.03-.36-.04-.35-.06-.35-.07-.35-.09-.35-.1-.35-.12-.34-.13-.34-.15-.34-.16-.33-.17-70.4-39.03-.33-.18-.31-.21-.3-.21-.3-.22-.28-.23-.27-.24-.26-.25-.25-.26-.24-.27-.22-.28-.22-.28-.2-.29-.19-.3-.17-.31-.17-.31-.15-.31-.14-.33-.13-.32-.12-.33-.1-.34-.09-.34-.08-.34-.06-.35-.05-.34-.04-.35-.03-.35-.01-.36.01-.35.01-.35.03-.36.05-.35.06-.36.07-.35.09-.35.1-.35.11-.34.14-.35.14-.34.16-.33.18-.34.19-.32.2-.32.21-.3.22-.29.23-.29.24-.27.26-.26.26-.25.26-.23.28-.23.28-.21.3-.2.29-.19.31-.18.31-.17.32-.15.32-.14.32-.13.34-.12.33-.1.34-.09.34-.08.35-.06.35-.05.35-.04.35-.02.35-.01h.35z"/><path id="r" d="M387.15 99.92l.36.03.35.04.35.06.36.07.35.09.35.1.34.12.34.13.35.15.33.16.34.17 70.39 39.03.33.18.31.21.31.21.29.22.28.23.27.24.26.25.25.26.24.27.23.28.21.28.2.29.19.3.18.31.16.31.16.31.14.33.13.32.11.33.11.34.09.34.07.34.07.35.05.34.04.35.02.35.01.36v.35l-.02.35-.03.36-.04.35-.06.36-.08.35-.08.35-.11.35-.11.34-.13.35-.15.34-.16.33-.18.34-.19.32-.2.32-.21.3-.22.29-.23.29-.24.27-.25.26-.26.25-.27.23-.28.23-.28.21-.29.2-.3.19-.31.18-.31.17-.31.15-.32.14-.33.13-.33.12-.34.1-.34.09-.34.08-.34.06-.35.05-.35.04-.35.02-.36.01h-.35l-.35-.02-.36-.03-.35-.04-.35-.06-.36-.07-.35-.09-.35-.1-.34-.12-.35-.13-.34-.15-.33-.16-.34-.17-70.39-39.02-.33-.19-.31-.2-.31-.22-.29-.22-.28-.23-.27-.24-.26-.25-.25-.26-.24-.27-.23-.28-.21-.28-.2-.29-.19-.3-.18-.3-.16-.32-.16-.31-.14-.32-.13-.33-.11-.33-.11-.34-.09-.34-.07-.34-.07-.34-.05-.35-.04-.35-.02-.35-.01-.35v-.36l.02-.35.03-.36.04-.35.06-.35.08-.36.08-.35.1-.34.12-.35.13-.34.15-.34.16-.34.17-.33.19-.33.2-.32.22-.3.22-.29.23-.28.24-.28.25-.26.26-.24.27-.24.28-.23.28-.21.29-.2.3-.19.31-.18.31-.17.31-.15.32-.14.33-.13.33-.11.34-.11.34-.09.34-.07.34-.07.35-.05.35-.04.35-.02.36-.01h.35z"/><path id="s" d="M492.76 166.25l.44.05.44.07.44.09.44.11 52.6 14.95.43.14.43.15.41.18.4.19.39.21.37.23.36.24.35.26.33.27.32.29.3.3.29.32.27.33.26.34.24.35.22.36.21.37.19.38.17.39.16.4.13.4.12.41.1.42.07.42.06.43.04.43.02.44-.01.43-.02.44-.05.44-.06.45-.1.44-.11.44-.13.44-.16.42-.17.41-.2.4-.21.39-.22.37-.25.36-.25.35-.28.33-.29.32-.3.3-.31.29-.33.27-.34.26-.35.24-.36.22-.38.21-.38.19-.39.17-.39.16-.41.13-.41.12-.42.1-.42.07-.43.06-.43.04-.43.02-.44-.01-.44-.02-.44-.05-.44-.07-.44-.09-.45-.11-52.59-14.95-.06-.02-.07-.02-.06-.02-.06-.02-.06-.02-.06-.02-.07-.02-.06-.02-.06-.02-.06-.02-.06-.02-.06-.02-.06-.03-.06-.02-.06-.02-.06-.03-.05-.02-.06-.03-.06-.02-.06-.03-.06-.02-.06-.03-.05-.03-.06-.02-.06-.03-.05-.03-.06-.03-.06-.02-.05-.03-.06-.03-.05-.03-.06-.03-.05-.03-.33-.19-.31-.2-.31-.21-.29-.23-.29-.24-.27-.24-.27-.26-.25-.26-.24-.28-.23-.29-.22-.29-.2-.3-.2-.31-.18-.32-.17-.32-.15-.33-.14-.34-.13-.34-.12-.34-.1-.36-.09-.35-.07-.36-.06-.37-.04-.37-.03-.37-.01-.37v-.37l.01-.38.04-.38.05-.38.06-.38.09-.38.09-.37.14-.44.15-.42.18-.42.19-.4.21-.38.23-.38.24-.36.26-.34.27-.34.29-.32.31-.3.31-.29.33-.27.34-.26.35-.24.36-.22.37-.21.38-.19.39-.17.4-.16.4-.13.42-.12.41-.09.42-.08.43-.06.43-.04.44-.02.44.01z"/><path id="t" d="M238.77 431.48l.78.15.78.23.76.29.75.37.71.44.65.49.6.54.55.58.48.62.43.66.37.69.31.72.25.74.18.75.12.78.05.78-.01.78-.09.79-.15.78-.22.78-.3.76-.37.75-7.96 14.36-.44.71-.49.65-.54.6-.58.55-.62.49-.66.43-.69.36-.72.31-.74.25-.75.18-.78.12-.78.05-.78-.01-.79-.09-.78-.15-.78-.22-.76-.3-.74-.37-.71-.44-.66-.49-.6-.53-.55-.59-.48-.62-.43-.66-.37-.69-.31-.72-.25-.73-.18-.76-.12-.77-.05-.78.01-.79.09-.79.15-.78.23-.77.29-.77.37-.74 7.97-14.36.43-.71.49-.66.54-.6.58-.55.62-.48.66-.43.69-.37.72-.31.74-.25.76-.18.77-.12.78-.05.78.02z"/><path id="u" d="M220.66 467.81l1.23.57.11.06 1.13.74.99.88.84.99.68 1.09.52 1.16.35 1.23.17 1.26v1.29l-.18 1.28-.37 1.27-.57 1.23-.74 1.13-.88.99-.99.84-1.09.68-1.17.52-1.22.35-1.27.17h-1.28l-1.28-.18-1.27-.37-1.23-.57-.11-.06-1.13-.74-.99-.88-.84-.99-.68-1.09-.52-1.17-.35-1.22-.18-1.27v-1.28l.19-1.29.37-1.26.57-1.23.74-1.13.88-.99.99-.84 1.09-.68 1.16-.52 1.23-.35 1.26-.18h1.29l1.28.19z"/><path id="v" d="M156.42 227.92l47.86-31.08 31.08 47.86-47.87 31.08z"/><path id="w" d="M156.42 227.92l47.86-31.08 31.08 47.86-47.87 31.08z"/><path id="x" d="M434.22 524.79l.44.75.41.77.41.77.39.77.37.78.35.78.34.79.32.79.3.79.29.8.27.81.25.8.24.81.21.81.2.82.19.81.18.82.15.82.13.83.12.82.1.82.09.83.08.83.06.82.04.83.02.82.01.83-.01.82-.02.82-.04.82-.05.83-.08.82-.08.82-.11.82-.11.81-.14.81-.15.8-.15.81-.18.81-.2.8-.21.79-.22.79-.24.79-.26.78-.26.78-.29.78-.3.76-.31.76-.32.75-.35.75-.36.75-.38.74-.38.73-.4.72-.42.72-.42.71-.45.71-.47.69-.46.69-.5.68-.49.66-.53.67-.52.65-.55.65-.55.63-.58.62-.58.61-.61.61-.61.59-.63.59-.63.57-.67.56-.66.55-.68.54-.7.51-.71.52-.72.5-.73.5-.73.45-.73.45-.73.42-.75.41-.74.41-.76.37-.76.37-.76.35-.78.34-.77.31-.78.31-.79.29-.79.26-.79.27-.79.23-.82.22-.8.22-.81.19-.82.17-.81.16-.82.14-.82.14-.83.1-.83.1-.82.08-.84.06-.83.04-.84.04-.83.01h-.84l-.84-.02-.84-.04-.84-.05-.84-.07-.85-.09-.84-.1-.83-.12-.84-.14-.84-.15-.84-.17-.84-.19-.82-.2-.83-.22-.81-.23-.82-.25-.8-.26-.8-.27-.78-.3-.78-.31-.78-.32-.77-.34-.76-.36-.75-.36-.74-.38-.74-.4-.72-.41-.72-.42-.7-.44-.7-.45-.7-.46-.67-.48-.68-.49-.67-.51-.64-.51-.64-.54-.64-.54-.62-.56-.61-.57-.61-.58-.59-.6-.57-.6-.57-.62-.56-.63-.54-.64-.54-.66-.52-.67-.51-.68-.5-.69-.48-.7-.48-.72-224.81-346.17 71.78-46.62L433.29 523.3l.47.74z"/><path id="y" d="M436.49 524.79l.44.75.41.77.41.77.39.77.37.78.35.78.34.79.32.79.3.79.29.8.27.81.25.8.24.81.21.81.2.82.19.81.18.82.15.82.13.83.12.82.1.82.1.83.07.83.06.82.04.83.02.82.01.83-.01.82-.02.82-.04.82-.05.83-.08.82-.08.82-.11.82-.11.81-.14.81-.14.8-.16.81-.18.81-.2.8-.21.79-.22.79-.24.79-.25.78-.27.78-.29.78-.3.76-.31.76-.32.75-.35.75-.36.75-.38.74-.38.73-.4.72-.42.72-.42.71-.45.71-.47.69-.46.69-.5.68-.49.66-.53.67-.52.65-.55.65-.55.63-.58.62-.58.61-.6.61-.62.59-.63.59-.63.57-.67.56-.66.55-.68.54-.7.51-.71.52-.72.5-.73.5-.73.45-.73.45-.73.42-.75.41-.74.41-.76.37-.76.37-.76.35-.78.34-.77.31-.78.31-.79.29-.79.26-.79.27-.79.23-.82.22-.8.22-.81.19-.82.17-.81.16-.82.14-.82.14-.83.1-.83.1-.82.08-.84.06-.83.04-.84.04-.83.01h-.84l-.84-.02-.84-.04-.84-.05-.84-.07-.84-.09-.84-.1-.84-.12-.84-.14-.84-.15-.84-.17-.84-.19-.82-.2-.83-.22-.81-.23-.82-.25-.8-.26-.8-.27-.78-.3-.78-.31-.78-.32-.77-.34-.76-.36-.75-.36-.74-.38-.74-.4-.72-.41-.71-.42-.71-.44-.7-.45-.7-.46-.67-.48-.68-.49-.66-.51-.65-.51-.64-.54-.64-.54-.62-.56-.61-.57-.61-.58-.59-.6-.57-.6-.57-.62-.56-.63-.54-.64-.54-.66-.52-.67-.51-.68-.5-.69-.48-.7-.48-.72-224.81-346.17 71.79-46.62L435.56 523.3l.47.74z"/><path id="z" d="M434.22 524.79l.44.75.41.77.41.77.39.77.37.78.35.78.34.79.32.79.3.79.29.8.27.81.25.8.24.81.21.81.2.82.19.81.18.82.15.82.13.83.12.82.1.82.09.83.08.83.06.82.04.83.02.82.01.83-.01.82-.02.82-.04.82-.05.83-.08.82-.08.82-.11.82-.11.81-.14.81-.15.8-.15.81-.18.81-.2.8-.21.79-.22.79-.24.79-.26.78-.26.78-.29.78-.3.76-.31.76-.32.75-.35.75-.36.75-.38.74-.38.73-.4.72-.42.72-.42.71-.45.71-.47.69-.46.69-.5.68-.49.66-.53.67-.52.65-.55.65-.55.63-.58.62-.58.61-.61.61-.61.59-.63.59-.63.57-.67.56-.66.55-.68.54-.7.51-.71.52-.72.5-.73.5-248.12-382.08 35.88-23.31L433.29 523.3l.47.74z"/><path id="A" d="M436.49 524.79l.44.75.41.77.41.77.39.77.37.78.35.78.34.79.32.79.3.79.29.8.27.81.25.8.24.81.21.81.2.82.19.81.18.82.15.82.13.83.12.82.1.82.1.83.07.83.06.82.04.83.02.82.01.83-.01.82-.02.82-.04.82-.05.83-.08.82-.08.82-.11.82-.11.81-.14.81-.14.8-.16.81-.18.81-.2.8-.21.79-.22.79-.24.79-.25.78-.27.78-.29.78-.3.76-.31.76-.32.75-.35.75-.36.75-.38.74-.38.73-.4.72-.42.72-.42.71-.45.71-.47.69-.46.69-.5.68-.49.66-.53.67-.52.65-.55.65-.55.63-.58.62-.58.61-.6.61-.62.59-.63.59-.63.57-.67.56-.66.55-.68.54-.7.51-.71.52-.72.5-.73.5c-4.42-6.81-27.31-42.06-68.66-105.73-41.36-63.68-101.18-155.8-179.46-276.35l35.89-23.31L435.56 523.3l.47.74z"/><path id="B" d="M175.54 283.56l71.78-46.62 31.08 47.86-71.78 46.61z"/><path id="C" d="M175.54 283.56l71.78-46.62 31.08 47.86-71.78 46.61z"/><path id="D" d="M211.44 260.24l35.88-23.3 31.08 47.86-35.89 23.3z"/><path id="E" d="M210.75 260.24l35.88-23.3 31.08 47.86-35.89 23.3z"/><path id="F" d="M199.26 50.65l.27.03.28.03.28.04.28.04.28.05.28.06 39.46 8.39.28.06.27.07.28.07.26.08.27.08.27.09.27.09.26.1.25.11.26.11.26.11.26.11.24.12.25.13.25.13.24.14.24.14.23.15.24.15.23.16.23.16.23.16.21.17.23.17.21.18.21.18.21.18.2.19.2.2.2.2.2.21.18.19.18.22.19.21.18.22.17.22.17.23.17.23.15.22.16.24 31.09 47.88.16.23.14.25.14.25.14.24.13.25.13.25.12.25.12.25.11.27.1.25.1.27.1.25.1.27.08.27.08.26.07.27.07.27.06.27.06.28.05.27.05.27.04.28.04.27.03.28.04.27.02.29.01.27.01.28.01.28v.28l-.01.28-.01.27-.02.28-.02.28-.03.28-.03.28-.04.28-.05.28-.05.28-.06.28-8.39 39.46-.06.28-.06.27-.08.28-.07.27-.09.27-.09.26-.09.26-.1.27-.1.26-.11.25-.11.26-.12.26-.12.24-.12.25-.14.25-.13.24-.15.24-.15.24-.15.23-.15.23-.16.23-.16.23-.17.21-.18.23-.17.21-.19.21-.19.21-.18.21-.19.19-.2.2-.21.2-.2.18-.21.19-.22.18-.22.18-.21.18-.23.16-.23.17-.23.16-.24.16-159.55 103.61-.24.15-.23.14-.25.14-.25.15-.25.13-.25.12-.25.12-.26.12-.25.11-.26.11-.26.1-.27.1-.26.08-.26.09-.27.08-.27.07-.27.07-.27.07-.27.06-.28.05-.27.05-.27.04-.28.04-.28.03-.28.03-.27.02-.28.01-.28.01-.27.01h-.29l-.28-.01-.28-.01-.28-.02-.28-.02-.28-.03-.28-.03-.28-.04-.27-.05-.28-.05-.28-.05-39.46-8.39-.28-.07-.26-.05-.28-.07-.27-.08-.27-.09-.27-.08-.27-.1-.25-.1-.26-.1-.26-.11-.26-.11-.25-.12-.25-.12-.25-.13-.24-.14-.25-.13-.23-.15-.24-.14-.24-.15-.23-.15-.23-.16-.22-.17-.22-.17-.22-.18-.22-.16-.21-.19-.21-.19-.2-.19-.2-.19-.2-.19-.19-.21-.19-.21-.19-.21-.17-.21-.19-.22-.17-.22-.17-.23-.17-.22-.16-.24-.15-.23-31.09-47.87-.15-.25-.15-.24-.15-.24-.13-.25-.13-.24-.13-.26-.12-.25-.12-.26-.11-.25-.1-.26-.1-.26-.1-.27-.09-.26-.08-.27-.08-.26-.08-.27-.07-.27-.06-.27-.06-.27-.06-.28-.04-.27-.04-.27-.04-.29-.03-.27-.03-.27-.02-.28-.02-.28-.01-.28v-.56l.01-.28.01-.28.02-.28.02-.28.03-.28.03-.28.03-.27.05-.28.05-.28.05-.28 8.39-39.46.06-.28.07-.27.07-.27.08-.27.08-.27.09-.27.1-.27.09-.26.11-.25.11-.26.11-.26.12-.25.12-.25.13-.25.13-.24.13-.25.15-.24.14-.23.16-.24.15-.23.16-.23.17-.22.17-.23.16-.21.18-.22.19-.21.18-.21.2-.2.18-.21.2-.19.21-.19.21-.2.2-.18.22-.19.22-.17.22-.17.22-.17.23-.17.24-.16.23-.15L190.19 52.9l.25-.16.24-.15.24-.14.25-.13.24-.13.26-.14.26-.12.25-.11.26-.11.25-.11.26-.09.27-.11.26-.09.27-.08.26-.08.27-.07.27-.07.27-.07.28-.05.27-.06.27-.04.27-.05.28-.03.28-.04.27-.03.28-.02.29-.02.27-.01h.56l.28.01.28.01.28.01z"/><path id="G" d="M199.26 50.65l.27.03.28.03.28.04.28.04.28.05.28.06 39.46 8.39.28.06.27.07.28.07.26.08.27.08.27.09.27.09.26.1.25.11.26.11.26.11.26.11.24.12.25.13.25.13.24.14.24.14.23.15.24.15.23.16.23.16.23.16.21.17.23.17.21.18.21.18.21.18.2.19.2.2.2.2.2.21.18.19.18.22.19.21.18.22.17.22.17.23.17.23.15.22.16.24 31.09 47.88.16.23.14.25.14.25.14.24.13.25.13.25.12.25.12.25.11.27.1.25.1.27.1.25.1.27.08.27.08.26.07.27.07.27.06.27.06.28.05.27.05.27.04.28.04.27.03.28.04.27.02.29.01.27.01.28.01.28v.28l-.01.28-.01.27-.02.28-.02.28-.03.28-.03.28-.04.28-.05.28-.05.28-.06.28-8.39 39.46-.06.28-.06.27-.08.28-.07.27-.09.27-.09.26-.09.26-.1.27-.1.26-.11.25-.11.26-.12.26-.12.24-.12.25-.14.25-.13.24-.15.24-.15.24-.15.23-.15.23-.16.23-.16.23-.17.21-.18.23-.17.21-.19.21-.19.21-.18.21-.19.19-.2.2-.21.2-.2.18-.21.19-.22.18-.22.18-.21.18-.23.16-.23.17-.23.16-.24.16-159.55 103.61-.24.15-.23.14-.25.14-.25.15-.25.13-.25.12-.25.12-.26.12-.25.11-.26.11-.26.1-.27.1-.26.08-.26.09-.27.08-.27.07-.27.07-.27.07-.27.06-.28.05-.27.05-.27.04-.28.04-.28.03-.28.03-.27.02-.28.01-.28.01-.27.01h-.29l-.28-.01-.28-.01-.28-.02-.28-.02-.28-.03-.28-.03-.28-.04-.27-.05-.28-.05-.28-.05-39.46-8.39-.28-.07-.26-.05-.28-.07-.27-.08-.27-.09-.27-.08-.27-.1-.25-.1-.26-.1-.26-.11-.26-.11-.25-.12-.25-.12-.25-.13-.24-.14-.25-.13-.23-.15-.24-.14-.24-.15-.23-.15-.23-.16-.22-.17-.22-.17-.22-.18-.22-.16-.21-.19-.21-.19-.2-.19-.2-.19-.2-.19-.19-.21-.19-.21-.19-.21-.17-.21-.19-.22-.17-.22-.17-.23-.17-.22-.16-.24-.15-.23-31.09-47.87-.15-.25-.15-.24-.15-.24-.13-.25-.13-.24-.13-.26-.12-.25-.12-.26-.11-.25-.1-.26-.1-.26-.1-.27-.09-.26-.08-.27-.08-.26-.08-.27-.07-.27-.06-.27-.06-.27-.06-.28-.04-.27-.04-.27-.04-.29-.03-.27-.03-.27-.02-.28-.02-.28-.01-.28v-.56l.01-.28.01-.28.02-.28.02-.28.03-.28.03-.28.03-.27.05-.28.05-.28.05-.28 8.39-39.46.06-.28.07-.27.07-.27.08-.27.08-.27.09-.27.1-.27.09-.26.11-.25.11-.26.11-.26.12-.25.12-.25.13-.25.13-.24.13-.25.15-.24.14-.23.16-.24.15-.23.16-.23.17-.22.17-.23.16-.21.18-.22.19-.21.18-.21.2-.2.18-.21.2-.19.21-.19.21-.2.2-.18.22-.19.22-.17.22-.17.22-.17.23-.17.24-.16.23-.15L190.19 52.9l.25-.16.24-.15.24-.14.25-.13.24-.13.26-.14.26-.12.25-.11.26-.11.25-.11.26-.09.27-.11.26-.09.27-.08.26-.08.27-.07.27-.07.27-.07.28-.05.27-.06.27-.04.27-.05.28-.03.28-.04.27-.03.28-.02.29-.02.27-.01h.56l.28.01.28.01.28.01z"/><path id="H" d="M199.26 50.65l.27.03.28.03.28.04.28.04.28.05.28.06 39.46 8.39.28.06.27.07.28.07.26.08.27.08.27.09.27.09.26.1.25.11.26.1.26.12.26.11.24.12.25.13.25.13.24.14.24.14.23.15.24.15.23.16.23.16.23.16.21.17.23.17.21.18.21.18.21.18.2.19.2.2.2.2.2.2.18.2.19.21.18.22.18.22.17.21.18.23.16.24.16.22.15.24 31.09 47.88.16.23.15.25.14.25.13.24.13.25.14.25.12.25.11.25.11.27.1.25.1.27.1.25.1.27.08.26.08.27.07.27.07.27.07.28.05.26.06.27.04.28.05.28.03.27.03.28.04.27.02.29.02.27.01.28v.56l-.01.27-.01.28-.02.28-.02.28-.03.28-.03.28-.04.28-.05.28-.05.28-.05.28-8.39 39.46-.06.27-.07.28-.07.27-.08.28-.08.27-.09.26-.1.26-.09.27-.11.26-.11.25-.11.26-.12.26-.11.25-.13.24-.13.25-.14.24-.14.24-.15.24-.15.23-.16.23-.16.23-.16.23-.17.21-.17.23-.18.21-.19.21-.18.21-.19.21-.19.19-.2.2-.21.2-.2.18-.21.19-.21.18-.23.18-.21.18-.23.16-.23.17-.23.16-.24.16-79.78 51.8-77.68-119.64 79.76-51.81.25-.16.24-.14.24-.14.25-.14.24-.13.26-.13.26-.12.25-.11.26-.11.25-.11.27-.1.26-.1.26-.09.27-.08.26-.08.28-.08.26-.07.27-.06.28-.06.27-.05.27-.05.27-.04.28-.03.28-.05.27-.02.28-.02.29-.02.27-.01h.56l.28.01.28.01.28.01z"/><path id="I" d="M199.26 50.65l.27.03.28.03.28.04.28.04.28.05.28.06 39.46 8.39.28.06.27.07.28.07.26.08.27.08.27.09.27.09.26.1.25.11.26.1.26.12.26.11.24.12.25.13.25.13.24.14.24.14.23.15.24.15.23.16.23.16.23.16.21.17.23.17.21.18.21.18.21.18.2.19.2.2.2.2.2.2.18.2.19.21.18.22.18.22.17.21.18.23.16.24.16.22.15.24 31.09 47.88.16.23.15.25.14.25.13.24.13.25.14.25.12.25.11.25.11.27.1.25.1.27.1.25.1.27.08.26.08.27.07.27.07.27.07.28.05.26.06.27.04.28.05.28.03.27.03.28.04.27.02.29.02.27.01.28v.56l-.01.27-.01.28-.02.28-.02.28-.03.28-.03.28-.04.28-.05.28-.05.28-.05.28-8.39 39.46-.06.27-.07.28-.07.27-.08.28-.08.27-.09.26-.1.26-.09.27-.11.26-.11.25-.11.26-.12.26-.11.25-.13.24-.13.25-.14.24-.14.24-.15.24-.15.23-.16.23-.16.23-.16.23-.17.21-.17.23-.18.21-.19.21-.18.21-.19.21-.19.19-.2.2-.21.2-.2.18-.21.19-.21.18-.23.18-.21.18-.23.16-.23.17-.23.16-.24.16-79.78 51.8-77.68-119.64 79.76-51.81.25-.16.24-.14.24-.14.25-.14.24-.13.26-.13.26-.12.25-.11.26-.11.25-.11.27-.1.26-.1.26-.09.27-.08.26-.08.28-.08.26-.07.27-.06.28-.06.27-.05.27-.05.27-.04.28-.03.28-.05.27-.02.28-.02.29-.02.27-.01h.56l.28.01.28.01.28.01z"/><path id="J" d="M54.59 140.96l111.67-72.52 77.7 119.64-111.68 72.52z"/><path id="K" d="M54.59 140.96l111.67-72.52 77.7 119.64-111.68 72.52z"/><path id="L" d="M110.43 104.7l55.83-36.26 77.7 119.64-55.85 36.27z"/><path id="M" d="M110.43 104.7l55.83-36.26 77.7 119.64-55.85 36.27z"/></defs><use fill="#e81610" xlink:href="#a"/><use fill="none" xlink:href="#a"/><use fill="#fc4830" xlink:href="#b"/><use fill="none" xlink:href="#b"/><use fill="#a15615" xlink:href="#c"/><use fill="none" xlink:href="#c"/><use fill="#783207" xlink:href="#d"/><use fill="none" xlink:href="#d"/><use fill="#783207" xlink:href="#e"/><use fill="none" xlink:href="#e"/><use fill="#be7560" xlink:href="#f"/><use fill="none" xlink:href="#f"/><use fill="#a15615" xlink:href="#g"/><use fill="none" xlink:href="#g"/><use fill="#82807f" xlink:href="#h"/><use fill="none" xlink:href="#h"/><use fill="#6d6d6d" xlink:href="#i"/><use fill="none" xlink:href="#i"/><use fill="#dad0cd" xlink:href="#j"/><use fill="none" xlink:href="#j"/><use fill="#82807f" xlink:href="#k"/><use fill="none" xlink:href="#k"/><use fill="#6d6d6d" xlink:href="#l"/><use fill="none" xlink:href="#l"/><use fill="#c1bab8" xlink:href="#m"/><use fill="none" xlink:href="#m"/><use fill="#b7a6a3" xlink:href="#n"/><use fill="none" xlink:href="#n"/><use fill="#f1eded" xlink:href="#o"/><use fill="none" xlink:href="#o"/><use fill="#f1eded" xlink:href="#p"/><use fill="none" xlink:href="#p"/><use fill="#b7a6a3" xlink:href="#q"/><use fill="none" xlink:href="#q"/><use fill="#b7a6a3" xlink:href="#r"/><use fill="none" xlink:href="#r"/><use fill="#6d6d6d" xlink:href="#s"/><use fill="none" xlink:href="#s"/><use fill="#783207" xlink:href="#t"/><use fill="none" xlink:href="#t"/><use fill="#783207" xlink:href="#u"/><g fill="none"><use xlink:href="#u"/><use xlink:href="#v"/><use xlink:href="#v"/><use xlink:href="#w"/><use stroke="#000" stroke-width="30" xlink:href="#w"/></g><use fill="#a15615" xlink:href="#x"/><g fill="none"><use xlink:href="#x"/><use xlink:href="#y"/><use xlink:href="#y"/></g><use fill="#783207" xlink:href="#z"/><use fill="none" xlink:href="#z"/><use fill="none" xlink:href="#A"/><use fill="none" xlink:href="#A"/><use fill="#783207" xlink:href="#B"/><use fill="none" xlink:href="#B"/><use fill="none" xlink:href="#C"/><use fill="none" xlink:href="#C"/><use fill="#542000" xlink:href="#D"/><use fill="none" xlink:href="#D"/><use fill="none" xlink:href="#E"/><use fill="none" xlink:href="#E"/><use fill="#c9c5b1" xlink:href="#F"/><use fill="none" xlink:href="#F"/><use fill="none" xlink:href="#G"/><use fill="none" xlink:href="#G"/><use fill="#b0ac9b" xlink:href="#H"/><use fill="none" xlink:href="#H"/><use fill="none" xlink:href="#I"/><use fill="none" xlink:href="#I"/><use fill="#e5e2d6" xlink:href="#J"/><use fill="none" xlink:href="#J"/><use fill="none" xlink:href="#K"/><use fill="none" xlink:href="#K"/><use fill="#c9c5b1" xlink:href="#L"/><use fill="none" xlink:href="#L"/><use fill="none" xlink:href="#M"/><use fill="none" xlink:href="#M"/></svg>