<svg height="640" width="640" xmlns:xlink="http://www.w3.org/1999/xlink" xmlns="http://www.w3.org/2000/svg"><defs><filter id="F" x="0" y="0" width="1" height="1" color-interpolation-filters="sRGB"><feColorMatrix type="hueRotate" values="172" result="color1"/><feColorMatrix type="saturate" values="1" result="color2"/></filter><filter id="E" x="0" y="0" width="1" height="1" color-interpolation-filters="sRGB"><feColorMatrix type="hueRotate" values="172" result="color1"/><feColorMatrix type="saturate" values="1" result="color2"/></filter><filter id="D" x="0" y="0" width="1" height="1" color-interpolation-filters="sRGB"><feColorMatrix type="hueRotate" values="172" result="color1"/><feColorMatrix type="saturate" values="1" result="color2"/></filter><filter id="B" x="0" y="0" width="1" height="1" color-interpolation-filters="sRGB"><feColorMatrix type="hueRotate" values="172" result="color1"/><feColorMatrix type="saturate" values="1" result="color2"/></filter><filter id="z" x="0" y="0" width="1" height="1" color-interpolation-filters="sRGB"><feColorMatrix type="hueRotate" values="172" result="color1"/><feColorMatrix type="saturate" values="1" result="color2"/></filter><filter id="y" x="0" y="0" width="1" height="1" color-interpolation-filters="sRGB"><feColorMatrix type="hueRotate" values="172" result="color1"/><feColorMatrix type="saturate" values="1" result="color2"/></filter><filter id="w" x="0" y="0" width="1" height="1" color-interpolation-filters="sRGB"><feColorMatrix type="hueRotate" values="172" result="color1"/><feColorMatrix type="saturate" values="1" result="color2"/></filter><filter id="u" x="0" y="0" width="1" height="1" color-interpolation-filters="sRGB"><feColorMatrix type="hueRotate" values="172" result="color1"/><feColorMatrix type="saturate" values="1" result="color2"/></filter><filter id="t" x="0" y="0" width="1" height="1" color-interpolation-filters="sRGB"><feColorMatrix type="hueRotate" values="172" result="color1"/><feColorMatrix type="saturate" values="1" result="color2"/></filter><filter id="r" x="0" y="0" width="1" height="1" color-interpolation-filters="sRGB"><feColorMatrix type="hueRotate" values="172" result="color1"/><feColorMatrix type="saturate" values="1" result="color2"/></filter><filter id="p" x="0" y="0" width="1" height="1" color-interpolation-filters="sRGB"><feColorMatrix type="hueRotate" values="172" result="color1"/><feColorMatrix type="saturate" values="1" result="color2"/></filter><filter id="o" x="0" y="0" width="1" height="1" color-interpolation-filters="sRGB"><feColorMatrix type="hueRotate" values="172" result="color1"/><feColorMatrix type="saturate" values="1" result="color2"/></filter><filter id="m" x="0" y="0" width="1" height="1" color-interpolation-filters="sRGB"><feColorMatrix type="hueRotate" values="172" result="color1"/><feColorMatrix type="saturate" values="1" result="color2"/></filter><filter id="k" x="0" y="0" width="1" height="1" color-interpolation-filters="sRGB"><feColorMatrix type="hueRotate" values="172" result="color1"/><feColorMatrix type="saturate" values="1" result="color2"/></filter><filter id="j" x="0" y="0" width="1" height="1" color-interpolation-filters="sRGB"><feColorMatrix type="hueRotate" values="172" result="color1"/><feColorMatrix type="saturate" values="1" result="color2"/></filter><filter id="h" x="0" y="0" width="1" height="1" color-interpolation-filters="sRGB"><feColorMatrix type="hueRotate" values="172" result="color1"/><feColorMatrix type="saturate" values="1" result="color2"/></filter><filter id="d" x="0" y="0" width="1" height="1" color-interpolation-filters="sRGB"><feColorMatrix type="hueRotate" values="172" result="color1"/><feColorMatrix type="saturate" values="1" result="color2"/></filter><filter id="a" x="0" y="0" width="1" height="1" color-interpolation-filters="sRGB"><feColorMatrix type="hueRotate" values="172" result="color1"/><feColorMatrix type="saturate" values="1" result="color2"/></filter><path id="b" d="M315.47 18.64c170.88 0 310.68 139.81 310.68 310.68S486.35 640 315.47 640C144.6 640 4.79 500.19 4.79 329.32S144.6 18.64 315.47 18.64z"/><path id="c" d="M315.47 18.64c170.88 0 310.68 139.81 310.68 310.68S486.35 640 315.47 640C144.6 640 4.79 500.19 4.79 329.32S144.6 18.64 315.47 18.64z"/><path id="e" d="M24.47 310.68c0 160.72 130.29 291 291 291 160.72 0 291.01-130.28 291.01-291s-130.29-291-291.01-291c-160.71 0-291 130.28-291 291z"/><path id="f" d="M28.99 310.68c0 160.72 130.29 291 291 291 160.72 0 291.01-130.28 291.01-291s-130.29-291-291.01-291c-160.71 0-291 130.28-291 291z"/><path id="g" d="M537.09 123.24C484.28 60.06 404.54 19.68 315.47 19.68c-160.51 0-291 130.48-291 291 0 89.06 40.39 168.8 103.56 222.65-43.49-50.74-69.38-115.98-69.38-187.44 0-160.52 130.48-291 291-291 71.46 0 136.7 25.89 187.44 68.35z"/><path id="i" d="M537.09 123.24C484.28 60.06 404.54 19.68 315.47 19.68c-160.51 0-291 130.48-291 291 0 89.06 40.39 168.8 103.56 222.65-43.49-50.74-69.38-115.98-69.38-187.44 0-160.52 130.48-291 291-291 71.46 0 136.7 25.89 187.44 68.35z"/><path id="l" d="M521.56 105.63c113.91 113.92 113.91 298.25 0 412.17-113.92 113.92-298.25 113.92-412.17 0"/><path id="n" d="M511.95 105.63c111.25 111.26 111.25 291.3 0 402.56-111.26 111.27-291.3 111.27-402.56 0"/><path id="q" d="M340.86 1.03l12.49 1.28 12.35 1.78 12.18 2.25 12.02 2.73 11.85 3.19 11.65 3.65 11.46 4.08 11.25 4.52 11.03 4.95 10.8 5.35 10.56 5.76 10.31 6.15 10.06 6.53 9.78 6.9 9.51 7.26 9.21 7.61 8.92 7.96 8.6 8.28 8.29 8.61 7.95 8.91 7.61 9.22 7.27 9.5 6.9 9.79 6.53 10.05 6.15 10.32 5.75 10.56 5.36 10.8 4.94 11.03 4.52 11.25 4.09 11.45 3.64 11.66 3.19 11.84 2.73 12.02 2.26 12.19 1.77 12.34 1.28 12.5.77 12.62.26 12.76-.26 12.76-.77 12.62-1.28 12.5-1.77 12.34-2.26 12.19-2.73 12.02-3.19 11.84-3.64 11.66-4.09 11.45-4.52 11.25-4.94 11.03-5.36 10.8-5.75 10.56-6.15 10.32-6.53 10.05-6.9 9.79-7.27 9.5-7.61 9.22-7.95 8.91-8.29 8.61-8.6 8.28-8.92 7.96-9.21 7.61-9.51 7.26-9.78 6.9-10.06 6.53-10.31 6.15-10.56 5.76-10.8 5.35-11.03 4.94-11.25 4.52-11.46 4.09-11.65 3.65-11.85 3.19-12.02 2.73-12.18 2.25-12.35 1.78-12.49 1.27-12.63.78-12.76.26-12.75-.26-12.63-.78-12.49-1.27-12.35-1.78-12.18-2.25-12.02-2.73-11.85-3.19-11.65-3.65-11.46-4.09-11.25-4.52-11.03-4.94-10.8-5.35-10.56-5.76-10.31-6.15-10.06-6.53-9.78-6.9-9.51-7.26-9.21-7.61-8.92-7.96-8.6-8.28-8.29-8.61-7.95-8.91-7.62-9.22-7.26-9.5-6.9-9.79-6.53-10.05-6.15-10.32-5.75-10.56-5.36-10.8-4.94-11.03-4.52-11.25-4.09-11.45-3.64-11.66-3.2-11.84-2.72-12.02-2.26-12.19-1.77-12.34-1.28-12.5-.77-12.62-.27-12.76.27-12.76.77-12.62 1.28-12.5 1.77-12.34 2.26-12.19 2.72-12.02 3.2-11.84 3.64-11.66 4.09-11.45 4.52-11.25 4.94-11.03 5.36-10.8 5.75-10.56 6.15-10.32 6.53-10.05 6.9-9.79 7.26-9.5 7.62-9.22 7.95-8.91 8.29-8.61 8.6-8.28 8.92-7.96 9.21-7.61 9.51-7.26 9.78-6.9 10.06-6.53 10.31-6.15 10.56-5.76 10.8-5.35 11.03-4.95 11.25-4.52 11.46-4.08 11.65-3.65 11.85-3.19 12.02-2.73 12.18-2.25 12.35-1.78 12.49-1.28 12.63-.77L315.47 0l12.76.26zm-47.68 39.23l-10.96 1.11-10.83 1.55-10.69 1.97-10.53 2.39-10.37 2.79-10.21 3.18-10.02 3.58-9.84 3.95-9.64 4.32-9.44 4.67-9.23 5.03-9.01 5.38-8.77 5.7-8.54 6.03-8.29 6.35-8.04 6.65-7.77 6.95-7.5 7.23-7.22 7.52-6.92 7.79-6.63 8.05-6.32 8.3-6.01 8.55-5.68 8.78-5.34 9-5.01 9.23-4.65 9.43-4.29 9.63-3.93 9.82-3.55 10.01-3.16 10.17-2.78 10.34-2.36 10.5-1.96 10.63-1.54 10.78-1.11 10.9-.67 11.03-.22 11.13.22 11.21.68 11.08 1.12 10.97 1.55 10.83 1.97 10.68 2.38 10.53 2.79 10.38 3.19 10.2 3.57 10.03 3.95 9.83 4.32 9.65 4.68 9.44 5.03 9.23 5.37 9 5.71 8.78 6.03 8.54 6.34 8.29 6.65 8.03 6.95 7.78 7.24 7.49 7.52 7.22 7.78 6.93 8.05 6.63 8.3 6.32 8.55 6 8.78 5.68 9.01 5.35 9.22 5 9.44 4.65 9.63 4.3 9.82 3.92 10 3.55 10.18 3.17 10.34 2.77 10.49 2.37 10.64 1.95 10.78 1.54 10.9 1.11 11.02.67 11.13.23 11.14-.23 11.02-.68 10.9-1.12 10.78-1.54 10.64-1.98 10.49-2.38 10.34-2.79 10.18-3.19 10-3.57 9.82-3.95 9.63-4.32 9.44-4.68 9.22-5.03 9.01-5.37 8.78-5.7 8.54-6.03 8.31-6.35 8.05-6.65 7.78-6.95 7.52-7.23 7.24-7.52 6.95-7.79 6.65-8.05 6.34-8.3 6.03-8.55 5.71-8.78 5.37-9 5.03-9.23 4.68-9.43 4.32-9.63 3.95-9.82 3.57-10.01 3.18-10.17 2.79-10.34 2.39-10.5 1.97-10.64 1.55-10.77 1.12-10.91.67-11.02.23-11.13-.22-11.13-.68-11.03-1.1-10.9-1.54-10.78-1.96-10.63-2.37-10.5-2.77-10.34L573 225.2l-3.55-10.01-3.93-9.82-4.29-9.63-4.65-9.43-5.01-9.23-5.35-9-5.67-8.78-6.01-8.55-6.32-8.3-6.63-8.05-6.92-7.79-7.22-7.52-7.5-7.23-7.77-6.95-8.04-6.65-8.29-6.35-8.54-6.03-8.77-5.7-9.01-5.38-9.23-5.03-9.44-4.67-9.64-4.32-9.84-3.95-10.03-3.58-10.2-3.18-10.37-2.79-10.53-2.39-10.69-1.97-10.83-1.55-10.96-1.11-11.09-.68-11.21-.23-11.2.23z"/><path id="s" d="M340.86 1.03l12.49 1.28 12.35 1.78 12.18 2.25 12.02 2.73 11.85 3.19 11.65 3.65 11.46 4.08 11.25 4.52 11.03 4.95 10.8 5.35 10.56 5.76 10.31 6.15 10.06 6.53 9.78 6.9 9.51 7.26 9.21 7.61 8.92 7.96 8.6 8.28 8.29 8.61 7.95 8.91 7.61 9.22 7.27 9.5 6.9 9.79 6.53 10.05 6.15 10.32 5.75 10.56 5.36 10.8 4.94 11.03 4.52 11.25 4.09 11.45 3.64 11.66 3.19 11.84 2.73 12.02 2.26 12.19 1.77 12.34 1.28 12.5.77 12.62.26 12.76-.26 12.76-.77 12.62-1.28 12.5-1.77 12.34-2.26 12.19-2.73 12.02-3.19 11.84-3.64 11.66-4.09 11.45-4.52 11.25-4.94 11.03-5.36 10.8-5.75 10.56-6.15 10.32-6.53 10.05-6.9 9.79-7.27 9.5-7.61 9.22-7.95 8.91-8.29 8.61-8.6 8.28-8.92 7.96-9.21 7.61-9.51 7.26-9.78 6.9-10.06 6.53-10.31 6.15-10.56 5.76-10.8 5.35-11.03 4.94-11.25 4.52-11.46 4.09-11.65 3.65-11.85 3.19-12.02 2.73-12.18 2.25-12.35 1.78-12.49 1.27-12.63.78-12.76.26-12.75-.26-12.63-.78-12.49-1.27-12.35-1.78-12.18-2.25-12.02-2.73-11.85-3.19-11.65-3.65-11.46-4.09-11.25-4.52-11.03-4.94-10.8-5.35-10.56-5.76-10.31-6.15-10.06-6.53-9.78-6.9-9.51-7.26-9.21-7.61-8.92-7.96-8.6-8.28-8.29-8.61-7.95-8.91-7.62-9.22-7.26-9.5-6.9-9.79-6.53-10.05-6.15-10.32-5.75-10.56-5.36-10.8-4.94-11.03-4.52-11.25-4.09-11.45-3.64-11.66-3.2-11.84-2.72-12.02-2.26-12.19-1.77-12.34-1.28-12.5-.77-12.62-.27-12.76.27-12.76.77-12.62 1.28-12.5 1.77-12.34 2.26-12.19 2.72-12.02 3.2-11.84 3.64-11.66 4.09-11.45 4.52-11.25 4.94-11.03 5.36-10.8 5.75-10.56 6.15-10.32 6.53-10.05 6.9-9.79 7.26-9.5 7.62-9.22 7.95-8.91 8.29-8.61 8.6-8.28 8.92-7.96 9.21-7.61 9.51-7.26 9.78-6.9 10.06-6.53 10.31-6.15 10.56-5.76 10.8-5.35 11.03-4.95 11.25-4.52 11.46-4.08 11.65-3.65 11.85-3.19 12.02-2.73 12.18-2.25 12.35-1.78 12.49-1.28 12.63-.77L315.47 0l12.76.26zm-47.68 39.23l-10.96 1.11-10.83 1.55-10.69 1.97-10.53 2.39-10.37 2.79-10.21 3.18-10.02 3.58-9.84 3.95-9.64 4.32-9.44 4.67-9.23 5.03-9.01 5.38-8.77 5.7-8.54 6.03-8.29 6.35-8.04 6.65-7.77 6.95-7.5 7.23-7.22 7.52-6.92 7.79-6.63 8.05-6.32 8.3-6.01 8.55-5.68 8.78-5.34 9-5.01 9.23-4.65 9.43-4.29 9.63-3.93 9.82-3.55 10.01-3.16 10.17-2.78 10.34-2.36 10.5-1.96 10.63-1.54 10.78-1.11 10.9-.67 11.03-.22 11.13.22 11.21.68 11.08 1.12 10.97 1.55 10.83 1.97 10.68 2.38 10.53 2.79 10.38 3.19 10.2 3.57 10.03 3.95 9.83 4.32 9.65 4.68 9.44 5.03 9.23 5.37 9 5.71 8.78 6.03 8.54 6.34 8.29 6.65 8.03 6.95 7.78 7.24 7.49 7.52 7.22 7.78 6.93 8.05 6.63 8.3 6.32 8.55 6 8.78 5.68 9.01 5.35 9.22 5 9.44 4.65 9.63 4.3 9.82 3.92 10 3.55 10.18 3.17 10.34 2.77 10.49 2.37 10.64 1.95 10.78 1.54 10.9 1.11 11.02.67 11.13.23 11.14-.23 11.02-.68 10.9-1.12 10.78-1.54 10.64-1.98 10.49-2.38 10.34-2.79 10.18-3.19 10-3.57 9.82-3.95 9.63-4.32 9.44-4.68 9.22-5.03 9.01-5.37 8.78-5.7 8.54-6.03 8.31-6.35 8.05-6.65 7.78-6.95 7.52-7.23 7.24-7.52 6.95-7.79 6.65-8.05 6.34-8.3 6.03-8.55 5.71-8.78 5.37-9 5.03-9.23 4.68-9.43 4.32-9.63 3.95-9.82 3.57-10.01 3.18-10.17 2.79-10.34 2.39-10.5 1.97-10.64 1.55-10.77 1.12-10.91.67-11.02.23-11.13-.22-11.13-.68-11.03-1.1-10.9-1.54-10.78-1.96-10.63-2.37-10.5-2.77-10.34L573 225.2l-3.55-10.01-3.93-9.82-4.29-9.63-4.65-9.43-5.01-9.23-5.35-9-5.67-8.78-6.01-8.55-6.32-8.3-6.63-8.05-6.92-7.79-7.22-7.52-7.5-7.23-7.77-6.95-8.04-6.65-8.29-6.35-8.54-6.03-8.77-5.7-9.01-5.38-9.23-5.03-9.44-4.67-9.64-4.32-9.84-3.95-10.03-3.58-10.2-3.18-10.37-2.79-10.53-2.39-10.69-1.97-10.83-1.55-10.96-1.11-11.09-.68-11.21-.23-11.2.23z"/><path id="v" d="M344.47 30.03c-52.81 0-101.49 13.47-144.98 36.25 35.21-17.61 74.56-26.93 115.98-26.93 81.82 0 156.38 37.28 206.09 95.28 57.99 49.71 94.24 123.23 94.24 206.08 0 41.43-9.32 80.78-25.89 115.99 22.78-43.5 36.24-93.2 36.24-146.02 0-78.71-28.99-150.16-76.63-204.01-54.89-47.64-126.34-76.64-205.05-76.64z"/><path id="x" d="M344.47 30.03c-52.81 0-101.49 13.47-144.98 36.25 35.21-17.61 74.56-26.93 115.98-26.93 81.82 0 156.38 37.28 206.09 95.28 57.99 49.71 94.24 123.23 94.24 206.08 0 41.43-9.32 80.78-25.89 115.99 22.78-43.5 36.24-93.2 36.24-146.02 0-78.71-28.99-150.16-76.63-204.01-54.89-47.64-126.34-76.64-205.05-76.64z"/><path id="A" d="M314.44 621.36c52.81 0 101.49-13.46 144.98-36.25C424.21 601.68 384.86 611 343.44 611c-81.82 0-156.38-37.28-206.09-95.27-57.99-49.71-95.27-123.24-95.27-206.09 0-41.42 9.32-80.77 25.89-115.98-20.72 44.53-34.18 94.24-34.18 147.05 0 78.71 29 150.16 76.64 204.01 54.88 47.64 126.34 76.64 204.01 76.64z"/><path id="C" d="M314.44 621.36c52.81 0 101.49-13.46 144.98-36.25C424.21 601.68 384.86 611 343.44 611c-81.82 0-156.38-37.28-206.09-95.27-57.99-49.71-95.27-123.24-95.27-206.09 0-41.42 9.32-80.77 25.89-115.98-20.72 44.53-34.18 94.24-34.18 147.05 0 78.71 29 150.16 76.64 204.01 54.88 47.64 126.34 76.64 204.01 76.64z"/><path id="G" d="M483.08 308.44c26.23-25.02 40.81-38.92 43.72-41.7 1.61-1.54 2.27-3.8 1.74-5.95s-2.18-3.86-4.31-4.47c-3.88-1.12-23.28-6.72-58.19-16.8 12.9-33.79 20.07-52.56 21.5-56.31.79-2.07.41-4.4-.99-6.12a6.28 6.28 0 00-5.83-2.2c-3.98.64-23.92 3.86-59.81 9.64-2.92-36.02-4.54-56.04-4.86-60.04-.18-2.21-1.53-4.15-3.54-5.1s-4.38-.76-6.21.5c-3.32 2.28-19.95 13.68-49.87 34.21-18.18-31.3-28.28-48.7-30.3-52.17a6.227 6.227 0 00-5.39-3.1 6.23 6.23 0 00-5.4 3.1c-2.32 3.99-13.91 23.95-34.78 59.88-36.09-20.83-56.14-32.4-60.15-34.71-1.93-1.12-4.3-1.12-6.23-.02s-3.12 3.15-3.13 5.36c-.01 4.01-.06 24.09-.14 60.24-36.23-2.99-56.36-4.65-60.39-4.98-2.21-.18-4.36.83-5.63 2.65a6.152 6.152 0 00-.51 6.17c1.72 3.63 10.34 21.79 25.85 54.48-34.02 12.75-52.92 19.83-56.7 21.25a6.228 6.228 0 00-3.95 4.79 6.2 6.2 0 002.2 5.8c3.12 2.54 18.74 15.27 46.86 38.19-25.23 26.02-39.25 40.48-42.05 43.37a6.172 6.172 0 00-1.51 6.01 6.218 6.218 0 004.49 4.3c3.92.97 23.52 5.81 58.8 14.52-11.57 34.27-17.99 53.31-19.28 57.11-.71 2.1-.24 4.42 1.24 6.07a6.24 6.24 0 005.9 1.98c3.96-.8 23.76-4.78 59.39-11.96 4.33 35.89 6.73 55.83 7.22 59.82.26 2.19 1.68 4.08 3.73 4.95s4.41.59 6.19-.73c3.23-2.41 19.39-14.45 48.49-36.12 19.39 29.57 30.16 46 32.32 49.29a6.234 6.234 0 005.27 2.89h.24a6.253 6.253 0 005.27-3.31c1.88-3.44 11.29-20.66 28.23-51.64 30.7 19.35 47.76 30.1 51.17 32.25a6.273 6.273 0 006.23.26 6.19 6.19 0 003.33-5.23c.17-4.02 1-24.08 2.51-60.19 36.08 4.39 56.13 6.82 60.14 7.31 2.2.27 4.39-.65 5.73-2.42s1.63-4.11.76-6.15c-1.58-3.7-9.48-22.18-23.7-55.44 34.49-11.42 53.66-17.77 57.49-19.04a6.185 6.185 0 002.17-10.51c-6.05-5.33-21.16-18.65-45.33-39.98z"/><path id="H" d="M446.85 309.6c0 70.81-57.45 128.22-128.33 128.22-70.87 0-128.32-57.41-128.32-128.22 0-70.82 57.45-128.23 128.32-128.23 70.88 0 128.33 57.41 128.33 128.23z"/><path id="I" d="M308.98 181.73c66.41 4.88 118.77 60.26 118.77 127.87 0 67.6-52.36 122.99-118.77 127.87 3.15.23 6.33.35 9.55.35 70.87 0 128.32-57.4 128.32-128.22S389.4 181.37 318.53 181.37c-3.22 0-6.4.12-9.55.36z"/></defs><g fill="none" filter="url(#a)"><use xlink:href="#b"/><use xlink:href="#c"/><use xlink:href="#c"/></g><g fill="none" filter="url(#d)"><use xlink:href="#e"/><use xlink:href="#f"/><use xlink:href="#f"/></g><use fill="none" xlink:href="#g" filter="url(#h)"/><use fill="none" xlink:href="#i" filter="url(#j)"/><use fill="none" xlink:href="#i" filter="url(#k)"/><use fill="none" xlink:href="#l" filter="url(#m)"/><use fill="none" xlink:href="#n" filter="url(#o)"/><use fill="none" xlink:href="#n" filter="url(#p)"/><use fill="none" xlink:href="#q" filter="url(#r)"/><use fill="none" xlink:href="#s" filter="url(#t)"/><use fill="none" xlink:href="#s" filter="url(#u)"/><use fill="none" xlink:href="#v" filter="url(#w)"/><use fill="none" xlink:href="#x" filter="url(#y)"/><use fill="none" xlink:href="#x" filter="url(#z)"/><use fill="none" xlink:href="#A" filter="url(#B)"/><use fill="none" xlink:href="#C" filter="url(#D)"/><use fill="none" xlink:href="#C" filter="url(#E)"/><g transform="translate(-165.586 -148.41) scale(1.51384)" filter="url(#F)"><use fill="#f2c256" xlink:href="#G"/><use fill="none" xlink:href="#G"/><use fill="#ffe0a1" xlink:href="#H"/><use fill="none" xlink:href="#H"/><use fill="#f5ce7e" xlink:href="#I"/><use fill="none" xlink:href="#I"/></g></svg>