<svg height="511pt" viewBox="0 -54 512 511" width="511pt" xmlns="http://www.w3.org/2000/svg"><path d="M216.516 393.473c-.22 0-.438-.008-.66-.028-50.56-4.375-96.211-27.906-128.543-66.261-32.489-38.547-47.946-87.93-43.524-139.051 2.934-33.906 14.617-66.473 33.793-94.184 18.617-26.898 43.836-48.687 72.938-63.015a7.541 7.541 0 0110.097 3.437 7.54 7.54 0 01-3.433 10.094c-26.805 13.2-50.043 33.277-67.2 58.066-17.683 25.555-28.464 55.606-31.171 86.899-4.075 47.105 10.144 92.574 40.03 128.03 29.743 35.286 71.759 56.935 118.313 60.958a7.542 7.542 0 01-.64 15.055zm0 0" fill="#d47a3d"/><path d="M165.328 375.941c-.707-14.73-18.058-25.46-39.523-24.433-19.09.914-41.356 20.355-43.832 22.566a7.542 7.542 0 00-2.508 5.985 7.552 7.552 0 003.07 5.714c2.606 1.918 25.469 18.309 44.3 18.309.497 0 .997-.012 1.49-.035 21.452-1.031 37.706-13.375 37.003-28.106zm0 0" fill="#00a983"/><path d="M182.59 344.313c-.914-19.09-20.356-41.356-22.57-43.833a7.545 7.545 0 00-5.98-2.507 7.548 7.548 0 00-5.72 3.07c-1.965 2.676-19.183 26.695-18.27 45.789.458 9.57 3.235 18.57 7.821 25.332 5.059 7.473 12.078 11.691 19.375 11.691.305 0 .606-.007.91-.023 14.73-.703 25.461-18.062 24.434-39.52zM66.316 281.945c-17.664-7.304-46.086.797-49.27 1.746a7.543 7.543 0 00-4.476 10.825c1.582 2.918 15.985 28.734 33.645 36.035 7.031 2.91 14.074 4.254 20.492 4.172 11.703-.145 21.316-5.035 24.961-13.836 5.633-13.63-5.504-30.735-25.352-38.942zm0 0" fill="#00bf9e"/><path d="M119.71 251.195a7.54 7.54 0 00-10.766-4.613c-2.936 1.547-28.928 15.621-36.456 33.191-8.453 19.747-4.46 39.758 9.098 45.567 2.422 1.039 5.012 1.55 7.684 1.55 5.054 0 10.386-1.835 15.398-5.402 6.656-4.738 12.402-12.199 16.176-21.008 7.523-17.566-.223-46.09-1.133-49.285zM53.68 200.46c-12.512-14.452-41.551-19.956-44.82-20.538a7.54 7.54 0 00-8.855 7.668c.104 3.32 1.397 32.847 13.905 47.297 9.274 10.71 21.02 16.605 31.145 16.605 5.222 0 10.015-1.57 13.812-4.855 11.149-9.657 8.871-29.938-5.187-46.176zm0 0" fill="#00a983"/><path d="M113.219 189.61a7.519 7.519 0 00-5.942-2.602c-3.32.105-32.847 1.394-47.3 13.906-7.247 6.274-12.606 14.012-15.098 21.793-2.863 8.953-1.645 17.395 3.351 23.16 4 4.625 10.047 7.094 17.063 7.094 1.738 0 3.535-.152 5.379-.461 8.058-1.348 16.488-5.547 23.73-11.82 14.453-12.508 19.961-41.547 20.54-44.817a7.547 7.547 0 00-1.723-6.254zm-43.153-70.864c-4.93-18.465-28.636-36.117-31.324-38.07a7.545 7.545 0 00-11.316 3.023c-1.356 3.031-13.11 30.153-8.176 48.617 2.473 9.258 7.09 17.465 12.996 23.11 5.309 5.066 11.426 7.758 17.36 7.758 1.667 0 3.32-.211 4.933-.645 7.371-1.969 13.125-8.266 15.781-17.281 2.309-7.836 2.22-17.254-.254-26.512zm0 0" fill="#00bf9e"/><path d="M128.36 135.023a7.537 7.537 0 00-4.208-4.937c-3.03-1.356-30.16-13.11-48.617-8.176-9.262 2.473-17.469 7.086-23.11 12.996-6.491 6.797-9.081 14.922-7.116 22.293 1.968 7.371 8.27 13.121 17.28 15.781 3.782 1.114 7.93 1.668 12.247 1.668 4.637 0 9.476-.64 14.27-1.921 18.464-4.93 36.117-28.637 38.066-31.325a7.533 7.533 0 001.187-6.379zM109.02 4.492a7.543 7.543 0 00-11.5-2.23c-2.543 2.133-24.973 21.383-28.614 40.144-4.094 21.086 4.043 39.805 18.52 42.617a19.31 19.31 0 003.652.352c13.2 0 25.715-13.637 29.465-32.95 3.64-18.76-9.961-45.003-11.523-47.933zm0 0" fill="#00a983"/><path d="M164.223 86.273c-2.133-2.543-21.387-24.972-40.149-28.613-9.41-1.824-18.808-1.262-26.465 1.586-8.812 3.274-14.695 9.445-16.148 16.938-1.453 7.488 1.695 15.414 8.64 21.746 6.04 5.504 14.547 9.543 23.954 11.367 2.199.426 4.504.617 6.86.617 17.737 0 38.487-10.762 41.073-12.14a7.543 7.543 0 002.235-11.5zm0 0" fill="#00bf9e"/><path d="M295.484 393.473a7.54 7.54 0 01-7.504-6.891 7.54 7.54 0 016.864-8.164c46.554-4.027 88.57-25.676 118.312-60.957 29.887-35.461 44.102-80.93 40.028-128.031-2.704-31.293-13.485-61.344-31.168-86.899-17.157-24.793-40.395-44.87-67.2-58.066a7.543 7.543 0 01-3.433-10.098 7.543 7.543 0 0110.097-3.433c29.102 14.328 54.32 36.117 72.938 63.015 19.176 27.707 30.86 60.278 33.793 94.18 4.422 51.125-11.035 100.508-43.523 139.055-32.333 38.355-77.985 61.886-128.543 66.261-.223.02-.442.028-.66.028zm0 0" fill="#d47a3d"/><path d="M430.027 374.074c-2.476-2.21-24.738-21.652-43.832-22.566-21.465-1.04-38.816 9.703-39.523 24.433-.703 14.73 15.55 27.075 37.004 28.106.492.023.988.035 1.488.035 18.832 0 41.695-16.39 44.3-18.309a7.536 7.536 0 003.067-5.714 7.551 7.551 0 00-2.504-5.985zm0 0" fill="#00bf9e"/><path d="M363.68 301.043a7.554 7.554 0 00-5.72-3.07 7.555 7.555 0 00-5.98 2.507c-2.214 2.477-21.656 24.743-22.57 43.833-1.027 21.453 9.703 38.816 24.434 39.519.304.016.605.023.906.023 7.3 0 14.316-4.218 19.379-11.69 4.582-6.763 7.36-15.763 7.82-25.333.914-19.09-16.304-43.113-18.27-45.789zm135.851-13.512a7.531 7.531 0 00-4.87-4.281c-3.196-.91-31.72-8.652-49.29-1.129-19.746 8.457-30.664 25.7-24.86 39.254 3.75 8.758 13.43 13.523 25.134 13.523 6.414 0 13.445-1.433 20.437-4.43 17.566-7.523 31.64-33.515 33.188-36.452a7.548 7.548 0 00.261-6.485zm0 0" fill="#00a983"/><path d="M439.512 279.773c-7.528-17.57-33.52-31.644-36.457-33.191a7.548 7.548 0 00-6.485-.258 7.531 7.531 0 00-4.28 4.871c-.911 3.196-8.657 31.72-1.134 49.29 3.774 8.808 9.52 16.269 16.176 21.007 5.012 3.567 10.344 5.399 15.398 5.399 2.668 0 5.258-.512 7.684-1.551 13.559-5.805 17.55-25.82 9.098-45.567zm69.883-98.128a7.56 7.56 0 00-6.254-1.723c-3.27.582-32.309 6.086-44.82 20.539-14.06 16.238-16.337 36.52-5.188 46.176 3.797 3.285 8.586 4.855 13.812 4.855 10.121 0 21.871-5.894 31.145-16.605 12.508-14.45 13.8-43.977 13.906-47.297a7.552 7.552 0 00-2.601-5.945zm0 0" fill="#00bf9e"/><path d="M467.121 222.707c-2.492-7.781-7.855-15.52-15.098-21.793-14.453-12.512-43.98-13.8-47.3-13.906a7.538 7.538 0 00-7.664 8.855c.578 3.27 6.086 32.309 20.535 44.817 7.246 6.273 15.676 10.472 23.734 11.82 1.84.309 3.64.46 5.379.46 7.016 0 13.063-2.472 17.063-7.093 4.996-5.765 6.214-14.207 3.351-23.16zM484.574 83.7a7.543 7.543 0 00-11.316-3.024c-2.688 1.953-26.395 19.605-31.324 38.07-2.473 9.258-2.563 18.676-.254 26.512 2.656 9.015 8.406 15.312 15.777 17.281a19 19 0 004.938.645c5.933 0 12.05-2.692 17.359-7.758 5.906-5.645 10.523-13.852 12.996-23.11 4.934-18.468-6.82-45.586-8.176-48.617zm0 0" fill="#00a983"/><path d="M459.574 134.906c-5.644-5.91-13.847-10.527-23.11-13-18.464-4.93-45.585 6.824-48.616 8.18a7.537 7.537 0 00-3.024 11.312c1.953 2.688 19.606 26.395 38.07 31.329 4.797 1.277 9.63 1.921 14.27 1.921 4.316 0 8.465-.558 12.242-1.671 9.016-2.657 15.313-8.407 17.282-15.778 1.968-7.37-.625-15.496-7.114-22.293zm-16.48-92.5c-3.64-18.761-26.07-38.011-28.614-40.144A7.549 7.549 0 00408.2.637a7.528 7.528 0 00-5.216 3.855c-1.566 2.93-15.164 29.172-11.523 47.934 3.746 19.312 16.262 32.945 29.46 32.945 1.216 0 2.434-.113 3.653-.351 14.477-2.81 22.613-21.528 18.52-42.614zm0 0" fill="#00bf9e"/><path d="M430.54 76.184c-1.454-7.493-7.34-13.664-16.15-16.938-7.66-2.848-17.058-3.414-26.464-1.586-18.766 3.64-38.016 26.07-40.149 28.613a7.537 7.537 0 00-1.62 6.282 7.538 7.538 0 003.85 5.218c2.587 1.38 23.34 12.141 41.079 12.141 2.355 0 4.66-.191 6.86-.617 9.406-1.824 17.913-5.863 23.952-11.367 6.946-6.332 10.094-14.258 8.641-21.746zm0 0" fill="#00a983"/><path d="M255.293 108.441c-58.02 0-105.219 47.2-105.219 105.22 0 58.019 47.2 105.218 105.219 105.218 58.016 0 105.219-47.2 105.219-105.219 0-58.015-47.203-105.219-105.219-105.219zm0 0" fill="#f8b53c"/><path d="M255.293 108.441c-3.906 0-7.766.223-11.563.637 52.598 5.777 93.657 50.473 93.657 104.582 0 54.113-41.059 98.805-93.657 104.582 3.797.418 7.657.637 11.563.637 58.016 0 105.219-47.2 105.219-105.219 0-58.015-47.203-105.219-105.219-105.219zm0 0" fill="#f8a814"/><path d="M255.293 138.746c-41.309 0-74.918 33.606-74.918 74.914s33.61 74.918 74.918 74.918c41.309 0 74.914-33.61 74.914-74.918s-33.605-74.914-74.914-74.914zm0 0" fill="#fae691"/><path d="M255.293 138.746a75.22 75.22 0 00-11.563.895c35.836 5.574 63.352 36.644 63.352 74.02 0 37.378-27.516 68.444-63.352 74.019 3.77.59 7.63.898 11.563.898 41.309 0 74.914-33.61 74.914-74.918s-33.605-74.914-74.914-74.914zm0 0" fill="#f9e075"/><path d="M293.316 239.738h-23.953a6.086 6.086 0 01-6.086-6.086v-45a3.671 3.671 0 00-3.668-3.668h-2.906a3.86 3.86 0 00-3.86 3.86v44.742a6.15 6.15 0 01-6.148 6.152H218.31a6.063 6.063 0 01-6.063-6.062V221.03h-11.453a7.542 7.542 0 010-15.082h20.797a5.738 5.738 0 015.742 5.738v12.97h10.43v-47a7.756 7.756 0 017.758-7.755h24.628a8.21 8.21 0 018.211 8.211v46.543h6.282v-13.824a3.838 3.838 0 013.836-3.84h25.14a7.545 7.545 0 017.543 7.543 7.542 7.542 0 01-7.543 7.54h-13.894v11.257a6.41 6.41 0 01-6.407 6.406zm0 0" fill="#f8b53c"/></svg>