<svg height="512pt" viewBox="0 0 512 512" width="512pt" xmlns="http://www.w3.org/2000/svg"><path d="M150.23 452.254H41.676l11.191-281.817h86.172zm160.047 0H201.723l11.191-281.817h86.172zm154.43 0H356.152l11.192-281.817h86.172zm0 0" fill="#fff587"/><g fill="#fdbf00"><path d="M464.707 452.254H356.152l11.192-281.817h86.172zM299.086 170.438H256v281.816h54.277zm0 0"/><path d="M22.281 422.254H489.72v75.004H22.28zm0 0"/></g><path d="M256 422.254h233.719v75.004H256zm0 0" fill="#ff9100"/><path d="M437.332 137.043H74.668l-14.77-26.113L256 0l196.102 110.93zm0 0" fill="#fdbf00"/><path d="M452.102 110.93L256 0v137.043h181.332zm0 0" fill="#ff9100"/><path d="M22.281 110.434H489.72v75.004H22.28zm0 0" fill="#fff587"/><path d="M256 110.434h233.719v75.004H256zm0 0" fill="#fdbf00"/><path d="M0 482h512v30H0zm0 0" fill="#fff587"/><path d="M256 482h256v30H256zM0 170.438h512v30H0zm0 0" fill="#fdbf00"/><path d="M256 170.438h256v30H256zm0 0" fill="#ff9100"/></svg>