<svg height="512pt" viewBox="0 0 512 512" width="512pt" xmlns="http://www.w3.org/2000/svg"><path d="M241 286h30v60h-30zm0-286h30v46h-30zm0 0" fill="#68544f"/><path d="M256 0h15v46h-15zm0 286h15v60h-15zm0 0" fill="#53433f"/><path d="M512 275.2V331h-35.2l-36 109.3c-5.402 16.2-15 30.602-27.3 42.298-9.598-11.098-23.398-17.7-38.102-17.7-16.796 0-32.398 8.102-41.996 21.903h-36.3c-9.301-13.203-24.301-21.602-40.801-21.903h-.602c-16.5.301-31.8 8.7-41.097 22.204h-35.704c-9.597-13.801-25.199-22.204-42.296-22.204-14.7 0-28.5 6.602-38.102 17.7-12.3-11.7-21.898-26.098-27.3-42.297L35.2 331H0v-30h82.3l60 60h195.598L391 281.5v-46.2zm0 0" fill="#68544f"/><path d="M512 275.2V331h-35.2l-36 109.3c-5.402 16.2-15 30.602-27.3 42.298-9.598-11.098-23.398-17.7-38.102-17.7-16.796 0-32.398 8.102-41.996 21.903h-36.3c-9.301-13.203-24.301-21.602-40.801-21.903H256V361h81.898L391 281.5v-46.2zm0 0" fill="#53433f"/><path d="M512 449.898v30h-16c-7.2.301-14.098 3.301-18.3 9.301C468.101 503.598 452.5 512 435.397 512c-17.398 0-33-8.402-42.597-22.8-8.102-12-27-12-35.102 0-9.597 14.398-25.199 22.8-42.3 22.8-17.399 0-32.997-8.402-42.598-22.8-3.899-5.7-9.903-9-16.801-9.302-6.898.301-12.898 3.602-16.8 9.301C229.601 503.598 214 512 196.601 512c-17.098 0-32.7-8.402-42.301-22.8-8.098-12-27-12-35.098 0-9.6 14.397-25.202 22.8-42.6 22.8-17.098 0-32.7-8.402-42.301-22.8-4.2-6-12.399-9.302-18.996-9.302H0v-30h15c16.2-.296 34.602 8.102 44.2 22.801 8.1 11.7 27 11.7 35.1 0 9.598-14.398 25.2-22.8 42.302-22.8 17.398 0 32.996 8.402 42.597 22.8 8.102 11.7 27 11.7 35.098 0 9.3-14.101 24.601-22.5 41.402-22.8h.602c16.797.3 32.097 8.699 41.398 22.8 8.098 11.7 27 11.7 35.098 0 9.601-14.398 25.203-22.8 42.601-22.8 17.098 0 32.7 8.402 42.301 22.8 8.098 11.7 26.996 11.7 35.098 0 9.601-14.699 26.101-22.8 43.5-22.8zm0 0" fill="#e2e2e7"/><path d="M226 361c0 16.5-13.5 30-30 30s-30-13.5-30-30 13.5-30 30-30 30 13.5 30 30zm0 0" fill="#c6715a"/><path d="M226 361c0 16.5-13.5 30-30 30v-60c16.5 0 30 13.5 30 30zm0 0" fill="#b35f49"/><path d="M286 361c0 16.5-13.5 30-30 30s-30-13.5-30-30 13.5-30 30-30 30 13.5 30 30zm0 0" fill="#c6715a"/><path d="M286 361c0 16.5-13.5 30-30 30v-60c16.5 0 30 13.5 30 30zm0 0" fill="#b35f49"/><path d="M346 361c0 16.5-13.5 30-30 30s-30-13.5-30-30 13.5-30 30-30 30 13.5 30 30zm0 0" fill="#c6715a"/><path d="M346 361c0 16.5-13.5 30-30 30v-60c16.5 0 30 13.5 30 30zm0 0" fill="#b35f49"/><path d="M512 449.898v30h-16c-7.2.301-14.098 3.301-18.3 9.301C468.101 503.598 452.5 512 435.397 512c-17.398 0-33-8.402-42.597-22.8-8.102-12-27-12-35.102 0-9.597 14.398-25.199 22.8-42.3 22.8-17.399 0-32.997-8.402-42.598-22.8-3.899-5.7-9.903-9-16.801-9.302v-30h.3c16.802.301 32.102 8.7 41.4 22.801 8.1 11.7 27 11.7 35.1 0 9.598-14.398 25.2-22.8 42.598-22.8 17.102 0 32.704 8.402 42.301 22.8 8.102 11.7 27 11.7 35.102 0 9.597-14.699 26.097-22.8 43.5-22.8zm0 0" fill="#d3d3d8"/><path d="M359.418 39.29L355.273 31H294.68l.328 270h60.265l4.145-8.29c39.668-79.339 39.668-174.081 0-253.42zm0 0" fill="#f6a96c"/><path d="M295 301H170.2l-.302-270H294.7c45.3 84 45.601 185.7.3 270zm0 0" fill="#fed2a4"/><path d="M295 301h-39V31h38.7c45.3 84 45.6 185.7.3 270zM170.04 31h-58.313l10.855 21.71c35.465 70.942 35.465 155.638 0 226.58L111.727 301h58.328c51.75-82.293 52.336-186.922-.016-270zm0 0" fill="#ffbd86"/><path d="M280.027 286h-48.054c-8.137 0-14.871-6.47-15.018-14.422 0-21.698 9.662-31.567 18.185-39.917 6.623-6.485 11.85-11.61 11.85-21.147 0-10.606-11.023-21.793-11.134-21.907a3.007 3.007 0 01-.651-3.27 3.006 3.006 0 012.774-1.854c5.415 0 8.33 1.944 10.677 3.508 2.094 1.396 3.748 2.499 7.344 2.499s5.25-1.103 7.344-2.5c2.347-1.563 5.262-3.507 10.677-3.507 1.214 0 2.305.73 2.774 1.853a3.007 3.007 0 01-.651 3.27c-.111.115-11.134 11.302-11.134 21.908 0 9.553 5.233 14.68 11.856 21.17 6.458 6.33 13.779 13.904 16.777 26.593a3.002 3.002 0 01-2.922 3.696h-7.69v21.024a3.002 3.002 0 01-3.004 3.003z" fill="#704c55"/><path d="M280.027 286a3.002 3.002 0 003.004-3.003v-21.024h7.69a3.003 3.003 0 002.921-3.696c-2.997-12.688-10.318-20.263-16.776-26.593-6.623-6.49-11.856-11.617-11.856-21.17 0-10.606 11.023-21.793 11.134-21.907a3.007 3.007 0 00.651-3.27 3.006 3.006 0 00-2.774-1.854c-5.415 0-8.33 1.944-10.677 3.508-2.094 1.396-3.748 2.499-7.344 2.499V286z" fill="#5a344b"/><path d="M268.014 213.517h-24.028c-1.66 0-3.003-1.343-3.003-3.003s1.343-3.004 3.003-3.004h24.028c1.66 0 3.003 1.344 3.003 3.004s-1.343 3.003-3.003 3.003z" fill="#9b786f"/><path d="M268.014 207.51H256v6.007h12.014c1.66 0 3.003-1.343 3.003-3.003s-1.343-3.004-3.003-3.004z" fill="#704c55"/><path d="M271.65 252.436h41.204v28.46H271.65z" fill="none"/><path d="M289.222 287.509c-9.345 0-16.991-7.646-16.991-16.992s7.646-16.99 16.99-16.99 16.992 7.645 16.992 16.99c0 9.346-7.646 16.992-16.991 16.992z" fill="#dbab56"/><path d="M305.137 269.498a15.915 15.915 0 01-15.915 15.915 15.915 15.915 0 01-15.915-15.915 15.915 15.915 0 0115.915-15.915 15.915 15.915 0 0115.915 15.915" fill="#efb30c"/><path d="M275.043 271.686c0-8.779 7.137-15.915 15.915-15.915 3.908 0 7.477 1.416 10.252 3.738a15.77 15.77 0 00-12.12-5.664c-8.78 0-15.916 7.137-15.916 15.915 0 4.871 2.21 9.232 5.664 12.177a15.667 15.667 0 01-3.795-10.25z" fill="#e5a300"/><path d="M300.36 258.546c6.23 6.23 6.23 16.312 0 22.542s-16.311 6.23-22.541 0" fill="#e5a300"/><path d="M289.222 286.49c-9.345 0-16.991-7.647-16.991-16.992s7.646-16.991 16.99-16.991 16.992 7.646 16.992 16.991-7.646 16.991-16.991 16.991zm0-31.831c-8.212 0-14.839 6.683-14.839 14.839 0 8.212 6.683 14.839 14.839 14.839s14.839-6.683 14.839-14.839-6.627-14.839-14.84-14.839z" fill="#f7d27f"/><path d="M306.213 269.498c0-4.304-1.586-8.212-4.191-11.158a17.031 17.031 0 00-11.214-4.19c-2.889 0-5.55.736-7.93 1.982 1.926-.963 4.078-1.473 6.344-1.473 4.474 0 8.552 2.039 11.27 5.21 3.172 2.72 5.155 6.74 5.155 11.271 0 2.266-.51 4.418-1.416 6.344a17.186 17.186 0 001.982-7.986z" fill="#efc273"/><path d="M273.817 271.14c0 4.305 1.585 8.213 4.19 11.158 3.003 2.605 6.91 4.191 11.158 4.191 2.889 0 5.55-.736 7.93-1.982a14.868 14.868 0 01-6.344 1.416c-4.474 0-8.552-2.04-11.27-5.21-3.172-2.72-5.211-6.74-5.211-11.272 0-2.265.51-4.417 1.416-6.343-1.133 2.435-1.87 5.154-1.87 8.042z" fill="#eac06c"/><path d="M295.136 231.958h23.82v16.453h-23.82z" fill="none"/></svg>