<svg viewBox="0 0 512.004 512.004" xmlns="http://www.w3.org/2000/svg"><path d="M21.109 279.385l-19.54-2.383c8.509-69.039 50.336-129.509 111.92-161.842l9.14 17.452a192.2 192.2 0 00-46.702 34.391 190.155 190.155 0 00-54.818 112.382zM.565 318.307a213.122 213.122 0 01-.502-20.682l19.697.473c-.158 6.195 0 12.498.443 18.712zm418.428 71.776l-10.952-16.359a189.778 189.778 0 0028.847-23.637 188.189 188.189 0 0055.418-131.134l19.697.295a207.806 207.806 0 01-61.17 144.696 209.253 209.253 0 01-31.84 26.139zm72.654-189.851a192.084 192.084 0 00-2.531-18.712l19.372-3.605a211.784 211.784 0 012.777 20.682z" fill="#fc9d9a"/><path d="M512.004 35.149L484.152 7.297 456.29 35.149 428.438 7.297l-27.862 27.852 27.862 27.862-28.817 28.817c-68.546-53.379-167.377-41.088-220.757 27.458a157.507 157.507 0 00-20.8 35.445 157.728 157.728 0 0150.622-9.415c39.207-52.178 113.298-62.696 165.476-23.489s62.696 113.298 23.489 165.476-113.298 62.696-165.476 23.489c-38.232-28.728-55.379-77.656-43.452-123.965a117.451 117.451 0 00-42.654 17.649c-6.539 86.737 58.481 162.345 145.208 168.874 86.727 6.53 162.345-58.481 168.874-145.208a157.474 157.474 0 00-32.688-108.463l28.817-28.817 27.862 27.862 27.852-27.862-27.852-27.852z" fill="#d8445e"/><path d="M306.079 373.656c-39.197 52.188-113.279 62.726-165.476 23.528s-62.726-113.279-23.528-165.476 113.279-62.726 165.476-23.528c38.242 28.719 55.398 77.646 43.482 123.965a117.498 117.498 0 0042.664-17.649c6.52-86.737-58.511-162.325-145.247-168.845-86.737-6.52-162.325 58.52-168.845 145.257a157.512 157.512 0 0032.688 108.433l-35.78 35.77v-5.279c.246-11.543-8.903-21.096-20.436-21.352S9.98 417.384 9.724 428.917c-.01.305-.01.601 0 .906v74.879h74.918c11.543.246 21.096-8.903 21.352-20.436s-8.903-21.096-20.436-21.352c-.305-.01-.601-.01-.906 0h-5.289l35.741-35.78c68.546 53.379 167.377 41.088 220.757-27.458a157.507 157.507 0 0020.8-35.445 157.257 157.257 0 01-50.582 9.425z" fill="#f07a87"/></svg>